<svg width="13" height="14" viewBox="0 0 13 14" fill="none" xmlns="http://www.w3.org/2000/svg">
<path d="M4.22467 1.58331H8.77467C10.508 1.58331 11.9163 2.99165 11.9163 4.72498V9.27498C11.9163 10.1082 11.5853 10.9073 10.9962 11.4965C10.407 12.0856 9.6079 12.4166 8.77467 12.4166H4.22467C2.49134 12.4166 1.08301 11.0083 1.08301 9.27498V4.72498C1.08301 3.89176 1.414 3.09266 2.00318 2.50349C2.59236 1.91431 3.39145 1.58331 4.22467 1.58331ZM4.11634 2.66665C3.59917 2.66665 3.10318 2.87209 2.73748 3.23779C2.37179 3.60348 2.16634 4.09947 2.16634 4.61665V9.38331C2.16634 10.4612 3.03842 11.3333 4.11634 11.3333H8.88301C9.40018 11.3333 9.89617 11.1279 10.2619 10.7622C10.6276 10.3965 10.833 9.90048 10.833 9.38331V4.61665C10.833 3.53873 9.96092 2.66665 8.88301 2.66665H4.11634ZM9.34342 3.47915C9.523 3.47915 9.69522 3.55048 9.82219 3.67746C9.94917 3.80444 10.0205 3.97666 10.0205 4.15623C10.0205 4.3358 9.94917 4.50802 9.82219 4.635C9.69522 4.76198 9.523 4.83331 9.34342 4.83331C9.16385 4.83331 8.99163 4.76198 8.86465 4.635C8.73768 4.50802 8.66634 4.3358 8.66634 4.15623C8.66634 3.97666 8.73768 3.80444 8.86465 3.67746C8.99163 3.55048 9.16385 3.47915 9.34342 3.47915ZM6.49967 4.29165C7.21797 4.29165 7.90684 4.57699 8.41475 5.0849C8.92267 5.59281 9.20801 6.28168 9.20801 6.99998C9.20801 7.71827 8.92267 8.40715 8.41475 8.91506C7.90684 9.42297 7.21797 9.70831 6.49967 9.70831C5.78138 9.70831 5.0925 9.42297 4.58459 8.91506C4.07668 8.40715 3.79134 7.71827 3.79134 6.99998C3.79134 6.28168 4.07668 5.59281 4.58459 5.0849C5.0925 4.57699 5.78138 4.29165 6.49967 4.29165ZM6.49967 5.37498C6.0687 5.37498 5.65537 5.54618 5.35063 5.85093C5.04588 6.15568 4.87467 6.569 4.87467 6.99998C4.87467 7.43096 5.04588 7.84428 5.35063 8.14903C5.65537 8.45377 6.0687 8.62498 6.49967 8.62498C6.93065 8.62498 7.34398 8.45377 7.64872 8.14903C7.95347 7.84428 8.12467 7.43096 8.12467 6.99998C8.12467 6.569 7.95347 6.15568 7.64872 5.85093C7.34398 5.54618 6.93065 5.37498 6.49967 5.37498Z" fill="black"/>
</svg>
