<svg width="14" height="14" viewBox="0 0 14 14" fill="none" xmlns="http://www.w3.org/2000/svg">
<path d="M1.16699 3.49998C1.16699 3.19056 1.28991 2.89381 1.5087 2.67502C1.72749 2.45623 2.02424 2.33331 2.33366 2.33331H11.667C11.9764 2.33331 12.2732 2.45623 12.492 2.67502C12.7107 2.89381 12.8337 3.19056 12.8337 3.49998V10.5C12.8337 10.8094 12.7107 11.1061 12.492 11.3249C12.2732 11.5437 11.9764 11.6666 11.667 11.6666H2.33366C2.02424 11.6666 1.72749 11.5437 1.5087 11.3249C1.28991 11.1061 1.16699 10.8094 1.16699 10.5V3.49998ZM3.21974 3.49998L7.00033 6.80806L10.7809 3.49998H3.21974ZM11.667 4.27523L7.38474 8.02256C7.27837 8.11576 7.14176 8.16715 7.00033 8.16715C6.8589 8.16715 6.72228 8.11576 6.61591 8.02256L2.33366 4.27523V10.5H11.667V4.27523Z" fill="black"/>
</svg>
