<svg width="14" height="14" viewBox="0 0 14 14" fill="none" xmlns="http://www.w3.org/2000/svg">
<path d="M9.91699 1.16669C10.2113 1.16659 10.4948 1.27776 10.7106 1.47789C10.9265 1.67803 11.0587 1.95235 11.0807 2.24585L11.0837 2.33335V11.6667C11.0838 11.961 10.9726 12.2445 10.7725 12.4603C10.5723 12.6762 10.298 12.8084 10.0045 12.8304L9.91699 12.8334H4.08366C3.78932 12.8334 3.50583 12.7223 3.29001 12.5221C3.07418 12.322 2.94198 12.0477 2.91991 11.7542L2.91699 11.6667V2.33335C2.9169 2.03902 3.02806 1.75552 3.2282 1.5397C3.42833 1.32388 3.70265 1.19168 3.99616 1.1696L4.08366 1.16669H9.91699ZM9.91699 2.33335H4.08366V11.6667H9.91699V2.33335ZM7.29199 9.33335C7.36026 9.33333 7.42637 9.35725 7.47881 9.40096C7.53125 9.44466 7.5667 9.50537 7.57899 9.57252L7.58366 9.62502V10.2084C7.58368 10.2766 7.55976 10.3427 7.51606 10.3952C7.47235 10.4476 7.41164 10.4831 7.34449 10.4954L7.29199 10.5H6.70866C6.64039 10.5 6.57428 10.4761 6.52184 10.4324C6.4694 10.3887 6.43395 10.328 6.42166 10.2609L6.41699 10.2084V9.62502C6.41697 9.55676 6.44089 9.49065 6.48459 9.4382C6.5283 9.38576 6.58901 9.35031 6.65616 9.33802L6.70866 9.33335H7.29199Z" fill="black"/>
</svg>
