<svg width="255" height="89" viewBox="0 0 255 89" fill="none" xmlns="http://www.w3.org/2000/svg">
<rect x="0.5" y="0.5" width="254" height="88" rx="44" stroke="white" stroke-opacity="0.2"/>
<path d="M169.924 41.0782C170.259 41.8906 170.404 42.7529 170.358 43.6654C170.346 43.8463 170.252 43.958 170.075 44.0003L166.263 44.8781C165.878 43.804 165.416 43.1841 164.877 43.0186C161.643 42.0426 160.881 46.1659 161.626 48.2795C162.365 50.3815 164.254 50.9879 165.853 49.0995C166.265 49.4191 166.702 49.6866 167.164 49.9022C167.576 50.0947 168.063 50.1775 168.625 50.1505C169.326 50.1159 170.023 50.0735 170.716 50.0235C168.642 55.7753 161.897 57.6521 158.098 52.2295C157.97 52.0524 157.834 52.0428 157.688 52.2006C155.828 54.2103 153.938 55.1535 152.017 55.0303C149.272 54.8571 147.198 53.4345 145.797 50.7627C145.643 50.4739 145.549 50.4932 145.514 50.8204C145.441 51.5211 145.404 51.9639 145.404 52.1486C145.375 53.7714 143.914 55.013 142.349 54.4355C141.437 54.0967 140.933 53.4865 140.836 52.6049C140.748 51.7964 140.783 50.241 140.94 47.9388C140.952 47.7655 140.871 47.6789 140.698 47.6789H136.355C136.244 47.6789 136.186 47.7367 136.182 47.8521C136.113 49.985 136.059 51.3402 136.02 51.9177C135.957 52.8821 135.397 53.731 134.455 54.0659C133.269 54.4855 132.305 54.0621 131.562 52.7954C133.876 48.8839 133.912 44.9628 131.672 41.032C131.745 40.674 131.799 39.8636 131.833 38.6008C131.903 36.2273 135.154 35.2398 136.257 37.5094C136.48 37.979 136.563 38.6393 136.505 39.4901C136.448 40.341 136.411 41.4459 136.396 42.8049C136.396 42.9397 136.463 43.007 136.598 43.007H141.021C141.091 43.007 141.125 42.9724 141.125 42.9031C141.137 42.2101 141.179 41.0301 141.252 39.3631C141.304 38.0695 141.841 36.8683 143.106 36.6374C144.015 36.4757 144.744 36.7009 145.295 37.313C145.888 37.9675 146.08 38.9974 145.872 40.4026C145.71 41.4921 145.918 41.5556 146.496 40.5931C147.778 38.4449 150.001 37.2033 152.525 37.1629C154.511 37.1321 156.38 38.2023 158.132 40.3737C158.321 40.6124 158.506 40.6085 158.687 40.3621C159.919 38.6643 161.682 37.7365 163.976 37.5787C166.309 37.417 168.292 38.5835 169.924 41.0782ZM152.196 49.8153C152.535 49.82 152.872 49.7285 153.187 49.546C153.503 49.3635 153.792 49.0935 154.036 48.7516C154.281 48.4096 154.476 48.0023 154.612 47.553C154.748 47.1036 154.822 46.621 154.829 46.1326C154.836 45.6443 154.776 45.1598 154.652 44.7068C154.529 44.2538 154.344 43.8412 154.109 43.4926C153.875 43.1439 153.594 42.866 153.283 42.6748C152.973 42.4835 152.638 42.3826 152.3 42.3779C151.961 42.3732 151.624 42.4647 151.308 42.6472C150.992 42.8297 150.704 43.0996 150.459 43.4416C150.215 43.7836 150.019 44.1909 149.883 44.6402C149.747 45.0896 149.673 45.5722 149.666 46.0606C149.66 46.5489 149.72 47.0334 149.843 47.4864C149.966 47.9394 150.151 48.352 150.386 48.7006C150.621 49.0493 150.901 49.3272 151.212 49.5184C151.522 49.7097 151.857 49.8105 152.196 49.8153Z" fill="#CCCCCC"/>
<path d="M170.716 50.0235C170.023 50.0736 169.326 50.1159 168.625 50.1506C168.063 50.1775 167.576 50.0947 167.164 49.9022C166.702 49.6866 166.265 49.4191 165.853 49.0995C165.372 47.6751 165.509 46.2679 166.263 44.8781L170.075 44.0003C170.252 43.958 170.346 43.8463 170.358 43.6654C170.404 42.753 170.259 41.8906 169.924 41.0782C170.078 39.4266 170.515 38.3814 171.235 37.9425C172.59 37.1148 173.821 37.4497 174.925 38.9473C175.164 39.2746 175.436 40.5778 175.74 42.8569C175.767 43.0648 175.886 43.1611 176.098 43.1457C177.178 43.0648 178.789 42.6432 179.794 43.0417C180.875 43.4729 181.474 44.316 181.59 45.5711C181.867 48.5221 179.193 48.857 176.981 49.0476C176.938 49.051 176.897 49.0633 176.859 49.0837C176.821 49.104 176.787 49.1321 176.76 49.1661C176.733 49.2002 176.713 49.2394 176.701 49.2816C176.69 49.3238 176.687 49.3679 176.693 49.4114C176.947 51.3517 177.518 53.6732 176.121 54.9091C174.666 56.1968 172.633 55.3884 172.038 53.6963C171.726 52.7993 171.522 51.6424 171.426 50.2256C171.42 50.1471 171.395 50.0681 171.355 49.9984C171.315 49.9286 171.261 49.8711 171.2 49.8331C171.14 49.795 171.074 49.778 171.013 49.7841C170.951 49.7903 170.896 49.8193 170.854 49.8676L170.716 50.0235Z" fill="#A3A3A3"/>
<path d="M97.4326 30.7643C97.4365 30.9607 97.4326 31.0762 97.4211 31.1108C97.3688 31.2385 97.2819 31.3489 97.1701 31.4297C97.0583 31.5105 96.9262 31.5584 96.7886 31.568C96.651 31.5776 96.5135 31.5486 96.3915 31.4841C96.2696 31.4196 96.1682 31.3223 96.0986 31.2032C96.0563 31.1339 96.0332 30.9992 96.0293 30.799C96.0255 30.5988 96.0428 30.464 96.0813 30.3947C96.1453 30.2732 96.2419 30.1719 96.3603 30.1022C96.4787 30.0325 96.6141 29.9972 96.7515 30.0002C96.8888 30.0032 97.0226 30.0444 97.1378 30.1192C97.253 30.194 97.3451 30.2994 97.4038 30.4236C97.4192 30.4583 97.4288 30.5718 97.4326 30.7643Z" fill="white"/>
<path d="M88.2449 31.5786C88.3796 31.5786 88.4701 31.5824 88.5163 31.5901C88.728 31.6132 88.857 31.7191 88.9032 31.9077C88.984 32.2119 88.986 32.4429 88.909 32.6007C88.8788 32.6622 88.8256 32.7159 88.7546 32.7565C88.6836 32.7971 88.5974 32.823 88.5047 32.8317C88.4778 32.8356 88.3912 32.8375 88.2449 32.8375C88.0986 32.8375 88.0119 32.8356 87.985 32.8317C87.8931 32.8237 87.8074 32.7986 87.7365 32.7591C87.6656 32.7196 87.6119 32.667 87.5808 32.6065C87.5038 32.4487 87.5057 32.2177 87.5865 31.9135C87.6289 31.721 87.7559 31.6132 87.9677 31.5901C88.0139 31.5824 88.1063 31.5786 88.2449 31.5786Z" fill="white"/>
<path d="M86.4372 33.8019C86.4372 34.0175 86.4103 34.1561 86.3564 34.2177C86.2704 34.3152 86.1624 34.391 86.0415 34.4385C85.9206 34.4861 85.7902 34.5041 85.6613 34.4911C85.5324 34.4781 85.4087 34.4345 85.3005 34.3638C85.1924 34.2931 85.103 34.1975 85.0397 34.0849C85.0243 34.0579 85.0166 33.9579 85.0166 33.7846C85.0205 33.6114 85.0301 33.5113 85.0455 33.4843C85.1111 33.3725 85.2027 33.2783 85.3126 33.2096C85.4226 33.1409 85.5477 33.0997 85.6773 33.0895C85.8069 33.0793 85.9373 33.1004 86.0575 33.1511C86.1777 33.2017 86.2842 33.2803 86.3679 33.3804C86.418 33.4458 86.4411 33.5863 86.4372 33.8019Z" fill="white"/>
<path d="M97.5018 33.7384C97.5056 33.8886 97.5018 33.9964 97.4902 34.0618C97.4479 34.2697 97.3208 34.3737 97.1091 34.3737H96.445C96.2602 34.3737 96.1581 34.2813 96.1389 34.0965C96.1158 33.9155 96.1042 33.8096 96.1042 33.7788C96.1042 33.748 96.11 33.6403 96.1216 33.4555C96.1293 33.2707 96.2255 33.1725 96.4103 33.1609L97.0744 33.1263C97.2862 33.1109 97.419 33.2071 97.4729 33.415C97.4883 33.4805 97.4979 33.5883 97.5018 33.7384Z" fill="white"/>
<path d="M131.672 41.0321C133.912 44.9628 133.876 48.884 131.562 52.7955C128.994 55.7869 126.005 56.4394 122.594 54.7532C122.247 54.5838 121.516 53.9331 120.399 52.8013C120.268 52.6704 120.149 52.6819 120.041 52.8359C116.686 57.6406 110.397 56.8494 107.92 51.7214C107.77 51.4134 107.646 51.4249 107.55 51.756C107.304 52.5953 107.115 53.1785 106.984 53.5058C105.922 56.0968 104.126 57.2537 101.596 56.9765C101.415 56.9534 101.319 57.0342 101.308 57.219C101.3 57.2999 101.281 57.3788 101.25 57.4558C101.157 57.6598 101.001 57.7368 100.782 57.6868L100.181 57.5597C99.9504 57.5059 99.86 57.3653 99.91 57.1382L100.02 56.6531C100.062 56.4567 100 56.2989 99.835 56.1796C98.5414 55.2671 97.6636 54.0217 97.2016 52.4432C97.1439 52.2507 97.2035 52.1063 97.3806 52.0101C97.6501 51.86 97.8099 51.6039 97.8599 51.242C97.8907 51.0072 97.7887 50.9032 97.5539 50.9302C97.115 50.9879 96.8012 50.6164 96.6126 49.8156C96.1814 47.9677 95.8272 46.5605 95.55 45.5942C95.3383 44.8512 95.1669 44.8608 95.036 45.6231L93.754 53.0958C93.7242 53.2633 93.7571 53.436 93.8464 53.5809C94.0043 53.835 94.0524 54.1353 93.9908 54.4817C93.96 54.655 93.856 54.7416 93.6789 54.7416H92.9224C92.7184 54.7416 92.7011 54.7994 92.8705 54.9149C93.5827 55.4038 93.8368 55.7907 93.6327 56.0756C93.5549 56.1857 93.4506 56.2739 93.3288 56.3328C93.207 56.3917 93.0711 56.4194 92.9329 56.4138C92.7946 56.4081 92.658 56.3692 92.5345 56.3002C92.411 56.2313 92.3044 56.1345 92.2237 56.0179C92.2083 55.9948 92.1929 55.9178 92.1775 55.7869C92.1659 55.6444 92.0889 55.5847 91.9465 55.6078C90.9494 55.7849 90.5624 56.2238 90.7857 56.9245C90.8002 56.9701 90.8037 57.0185 90.7961 57.0657C90.7885 57.113 90.7699 57.1578 90.7418 57.1965C90.7137 57.2353 90.6769 57.2669 90.6344 57.2889C90.5919 57.3108 90.5448 57.3225 90.497 57.323H89.7809C89.5461 57.323 89.4286 57.2056 89.4286 56.9707V56.3875C89.4286 56.1526 89.3151 56.066 89.0879 56.1276C88.9147 56.1776 88.7992 56.374 88.7414 56.7166C88.7068 56.9168 88.5874 57.0169 88.3834 57.0169H87.7077C87.4036 57.0169 87.2842 56.8687 87.3497 56.5722L87.3843 56.4221C87.4344 56.1988 87.3478 56.066 87.1245 56.0236C86.239 55.8619 85.4093 55.3672 84.6355 54.5395C84.4892 54.3816 84.3102 54.3027 84.0984 54.3027H83.0532C82.7798 54.3027 82.6432 54.1661 82.6432 53.8927V53.4596C82.6432 53.2401 82.751 53.1304 82.9666 53.1304H83.5672C83.7519 53.1304 83.8347 53.04 83.8155 52.859C83.7192 51.8272 83.3208 51.3595 82.6201 51.4557C82.5819 51.4615 82.543 51.4562 82.5077 51.4405C82.4725 51.4248 82.4425 51.3994 82.4213 51.3672C82.4 51.3351 82.3884 51.2975 82.3878 51.2589C82.3872 51.2204 82.3977 51.1825 82.418 51.1496C83.2149 49.8388 82.8049 49.6828 82.5046 48.4066C82.4507 48.1871 82.5315 48.0447 82.7471 47.9792C82.9858 47.9022 83.1379 47.6982 83.2033 47.3671C83.2182 47.2793 83.2056 47.1893 83.1673 47.1096C83.129 47.0299 83.0669 46.9644 82.9897 46.9224C82.7317 46.7838 82.4353 46.7184 82.1003 46.7261C82.443 46.3565 82.5508 45.96 82.4237 45.5365C82.3974 45.4507 82.3422 45.3768 82.2674 45.3273C82.1926 45.2777 82.1029 45.2558 82.0137 45.2651C81.9213 45.2766 81.8289 45.2689 81.7365 45.242C81.544 45.1842 81.4478 45.0533 81.4478 44.8493C81.4439 44.2333 81.1032 43.9465 80.4256 43.9888C80.21 44.0004 80.1253 43.9022 80.1715 43.6943L80.339 42.9436C80.3698 42.805 80.314 42.7357 80.1715 42.7357H79.2707C79.0782 42.7357 78.9781 42.6394 78.9704 42.4469L78.7971 39.0628C78.7954 39.0244 78.8027 38.9842 78.8186 38.9446C78.8344 38.9049 78.8586 38.8666 78.8895 38.8319C79.032 38.674 79.0666 38.4218 78.9935 38.0753C78.955 37.8829 79.0243 37.7308 79.2014 37.6191L79.594 37.3708C79.6992 37.3068 79.7901 37.1977 79.8539 37.059C81.3438 33.8481 85.2534 34.5354 86.2987 37.6307C86.7568 38.9935 87.6211 42.0966 88.8916 46.9398C88.9185 47.0399 88.9821 47.0841 89.0821 47.0726C89.1514 47.0687 89.2207 47.0533 89.29 47.0264C89.3208 47.0148 89.3382 46.9937 89.342 46.9629L90.8781 38.8723C90.9166 38.6644 90.8339 38.5393 90.6298 38.4969L90.2775 38.4161C90.0889 38.3737 89.9696 38.2601 89.9195 38.0753C89.881 37.9137 89.9022 37.7423 89.983 37.5614C90.0716 37.365 90.2236 37.2669 90.4392 37.2669H90.8435C91.0475 37.2669 91.1996 37.1783 91.2997 37.0012C92.0042 35.7231 93.1149 35.0281 94.6318 34.9165C95.7175 34.8356 97.7733 35.0897 98.4028 36.2101C98.499 36.3795 98.4528 36.443 98.2642 36.4006L97.629 36.262C97.5493 36.2451 97.4667 36.2482 97.3886 36.2711C97.3105 36.2941 97.2393 36.3361 97.1814 36.3933C97.1236 36.4506 97.0809 36.5214 97.0572 36.5993C97.0335 36.6772 97.0295 36.7597 97.0457 36.8395C97.1612 37.4093 97.5481 37.623 98.2064 37.4805C98.4143 37.4343 98.5087 37.3034 98.4894 37.0878C98.4779 36.9954 98.4663 36.9223 98.4548 36.8684C98.3893 36.5758 98.4817 36.5104 98.732 36.6721C99.1766 36.9608 100.303 42.3256 101.308 46.5182C101.5 47.319 101.685 47.3171 101.862 46.5124L103.912 37.1976C103.934 37.0947 103.991 37.0025 104.073 36.9363C104.155 36.8702 104.257 36.834 104.362 36.8337H104.611C104.815 36.8337 104.917 36.7298 104.917 36.5219V35.3438C104.917 35.1398 104.977 34.9531 105.096 34.7837C105.797 33.7942 106.678 33.2841 107.741 33.2533C109.999 33.184 110.882 35.0724 110.651 37.186C110.594 37.725 110.484 38.3429 110.322 39.0397C110.257 39.3092 110.347 39.3766 110.594 39.2419C113.752 37.5094 116.969 37.9656 119.319 40.6683C119.477 40.8492 119.639 41.0128 119.804 41.1591C119.908 41.2477 120.001 41.2361 120.082 41.1245C123.177 36.7414 128.484 36.7413 131.672 41.0321ZM84.1562 39.7963C84.3718 39.8155 84.5123 39.8097 84.5778 39.7789C84.6781 39.729 84.7641 39.6543 84.8275 39.5618C84.8909 39.4694 84.9297 39.3622 84.9401 39.2506C84.9505 39.139 84.9322 39.0265 84.887 38.9239C84.8418 38.8213 84.7711 38.732 84.6817 38.6644C84.6278 38.622 84.4911 38.5912 84.2717 38.572C84.0484 38.5489 83.9079 38.5547 83.8501 38.5893C83.7497 38.6392 83.6638 38.714 83.6004 38.8064C83.5369 38.8989 83.4982 39.006 83.4878 39.1176C83.4774 39.2293 83.4956 39.3417 83.5409 39.4443C83.5861 39.5469 83.6567 39.6362 83.7462 39.7039C83.8039 39.7462 83.9406 39.777 84.1562 39.7963ZM79.3111 40.2005C79.4497 40.3083 79.5979 40.3237 79.7557 40.2467C79.7866 40.232 79.8121 40.2084 79.8292 40.1789C79.8462 40.1495 79.8539 40.1153 79.8515 40.0809C79.849 40.0464 79.8364 40.0131 79.8153 39.985C79.7942 39.957 79.7654 39.9355 79.7326 39.9233C79.5863 39.8771 79.4535 39.8829 79.3342 39.9406C79.1879 40.0138 79.1802 40.1004 79.3111 40.2005ZM106.323 40.2583C106.313 40.204 106.291 40.1522 106.261 40.1061C106.23 40.0599 106.191 40.0202 106.145 39.9892C106.099 39.9583 106.048 39.9367 105.993 39.9256C105.939 39.9146 105.883 39.9144 105.829 39.9249L105.126 40.0616C105.072 40.0721 105.02 40.0933 104.974 40.1238C104.927 40.1544 104.888 40.1937 104.857 40.2396C104.826 40.2855 104.804 40.3371 104.793 40.3913C104.782 40.4456 104.782 40.5015 104.793 40.5558L104.885 41.032C104.896 41.0864 104.917 41.1381 104.947 41.1843C104.978 41.2304 105.017 41.2701 105.063 41.3011C105.109 41.332 105.161 41.3537 105.215 41.3647C105.269 41.3757 105.325 41.376 105.379 41.3654L106.082 41.2288C106.137 41.2182 106.188 41.197 106.234 41.1665C106.281 41.1359 106.32 41.0966 106.351 41.0507C106.382 41.0048 106.404 40.9532 106.415 40.899C106.426 40.8447 106.426 40.7888 106.416 40.7345L106.323 40.2583ZM86.6105 40.7433C86.6105 40.5595 86.5375 40.3833 86.4075 40.2533C86.2776 40.1234 86.1013 40.0504 85.9175 40.0504C85.7337 40.0504 85.5575 40.1234 85.4275 40.2533C85.2975 40.3833 85.2245 40.5595 85.2245 40.7433C85.2245 40.9271 85.2975 41.1034 85.4275 41.2333C85.5575 41.3633 85.7337 41.4363 85.9175 41.4363C86.1013 41.4363 86.2776 41.3633 86.4075 41.2333C86.5375 41.1034 86.6105 40.9271 86.6105 40.7433ZM80.5007 42.2506C80.8356 42.5817 81.1571 42.6972 81.4651 42.5971C81.6268 42.547 81.7269 42.4373 81.7654 42.2679L81.8693 41.8001C81.9309 41.5152 81.8154 41.3786 81.5228 41.3901L80.5238 41.419C80.4503 41.4204 80.3872 41.4493 80.342 41.5024C80.2968 41.5554 80.2715 41.6303 80.269 41.7181C80.2666 41.8059 80.2872 41.9028 80.3283 41.9972C80.3693 42.0917 80.4292 42.1796 80.5007 42.2506ZM126.128 50.4739C126.467 50.455 126.798 50.34 127.101 50.1356C127.404 49.9312 127.673 49.6413 127.894 49.2826C128.114 48.9238 128.281 48.5032 128.386 48.0447C128.491 47.5863 128.53 47.0989 128.503 46.6105C128.448 45.6242 128.123 44.6935 127.6 44.0232C127.076 43.3528 126.397 42.9977 125.712 43.036C125.373 43.055 125.042 43.1699 124.739 43.3744C124.436 43.5788 124.167 43.8686 123.946 44.2274C123.726 44.5861 123.559 45.0067 123.454 45.4652C123.349 45.9237 123.31 46.411 123.337 46.8994C123.392 47.8857 123.717 48.8164 124.241 49.4868C124.764 50.1571 125.443 50.5122 126.128 50.4739ZM114.463 50.8432C114.803 50.8236 115.133 50.7081 115.436 50.5031C115.738 50.2982 116.007 50.0078 116.227 49.6487C116.447 49.2896 116.614 48.8687 116.717 48.41C116.821 47.9514 116.86 47.464 116.832 46.9756C116.804 46.4873 116.709 46.0076 116.553 45.5639C116.397 45.1202 116.184 44.7213 115.924 44.3898C115.664 44.0583 115.363 43.8008 115.039 43.632C114.715 43.4632 114.374 43.3864 114.035 43.406C113.695 43.4255 113.365 43.5411 113.063 43.746C112.76 43.9509 112.491 44.2413 112.271 44.6004C112.051 44.9595 111.884 45.3805 111.781 45.8391C111.677 46.2978 111.638 46.7852 111.666 47.2735C111.694 47.7618 111.789 48.2415 111.945 48.6852C112.101 49.1289 112.315 49.5279 112.574 49.8593C112.834 50.1908 113.135 50.4483 113.459 50.6171C113.783 50.7859 114.124 50.8627 114.463 50.8432ZM85.7905 48.8339C85.8983 48.8339 85.9945 48.8281 86.0792 48.8166C86.1986 48.8012 86.2813 48.7588 86.3275 48.6896C86.4623 48.4971 86.4989 48.2449 86.4373 47.933C86.3988 47.7213 86.2717 47.6116 86.0561 47.6039C86.0176 47.6039 85.9194 47.6058 85.7616 47.6096C85.5999 47.6135 85.4998 47.6154 85.4613 47.6154C85.2496 47.6347 85.1283 47.7521 85.0975 47.9677C85.0513 48.2795 85.1013 48.5298 85.2476 48.7184C85.2938 48.7839 85.3785 48.8204 85.5017 48.8281C85.5864 48.8358 85.6827 48.8378 85.7905 48.8339ZM84.1446 50.9764C84.16 51.1573 84.1754 51.2594 84.1908 51.2825C84.2623 51.3852 84.3583 51.4685 84.4702 51.5247C84.582 51.5809 84.7062 51.6082 84.8313 51.6042C84.9564 51.6002 85.0785 51.5649 85.1865 51.5017C85.2945 51.4384 85.385 51.3492 85.4498 51.242C85.4844 51.1881 85.494 51.0649 85.4786 50.8725C85.4632 50.6838 85.4344 50.5645 85.392 50.5144C85.3113 50.4192 85.2082 50.3456 85.0919 50.3003C84.9757 50.255 84.85 50.2393 84.7261 50.2548C84.6023 50.2703 84.4843 50.3164 84.3828 50.3889C84.2812 50.4615 84.1994 50.5582 84.1446 50.6703C84.1331 50.6934 84.1331 50.7955 84.1446 50.9764ZM100.695 51.9119C100.715 52.1044 100.738 52.218 100.765 52.2526C100.845 52.355 100.951 52.435 101.071 52.4849C101.192 52.5349 101.323 52.5532 101.453 52.5382C101.583 52.5232 101.708 52.4753 101.814 52.3991C101.921 52.3229 102.007 52.2208 102.064 52.1025C102.083 52.0678 102.083 51.9581 102.064 51.7733C102.045 51.5885 102.022 51.4807 101.995 51.4499C101.915 51.3464 101.81 51.2645 101.691 51.212C101.571 51.1594 101.44 51.1379 101.311 51.1494C101.181 51.161 101.056 51.2052 100.949 51.2779C100.841 51.3507 100.754 51.4496 100.695 51.5654C100.676 51.6039 100.676 51.7194 100.695 51.9119ZM89.7058 54.1815C89.7443 54.6665 90.1005 54.8379 90.7742 54.6954C91.0052 54.6492 91.1072 54.4452 91.0803 54.0833C91.0533 53.7175 90.9224 53.5289 90.6876 53.5173C90.0023 53.475 89.675 53.6964 89.7058 54.1815ZM87.406 54.7138C87.4109 54.6328 87.3959 54.5514 87.3616 54.4742C87.3274 54.397 87.2747 54.3255 87.2064 54.2638C87.1382 54.2022 87.0558 54.1515 86.964 54.1148C86.8722 54.0781 86.7727 54.056 86.6713 54.0498C86.4665 54.0373 86.266 54.0902 86.1141 54.197C85.9622 54.3038 85.8712 54.4557 85.8612 54.6193C85.8563 54.7003 85.8713 54.7817 85.9056 54.8589C85.9398 54.9361 85.9926 55.0076 86.0608 55.0693C86.129 55.1309 86.2114 55.1815 86.3032 55.2183C86.395 55.255 86.4945 55.2771 86.5959 55.2833C86.8007 55.2958 87.0012 55.2429 87.1531 55.1361C87.305 55.0292 87.396 54.8774 87.406 54.7138Z" fill="white"/>
<path d="M80.4592 35.2888C80.8635 35.1714 81.109 34.7931 81.0076 34.444C80.9061 34.0948 80.4962 33.907 80.0919 34.0244C79.6876 34.1419 79.4421 34.5201 79.5435 34.8693C79.645 35.2184 80.0549 35.4063 80.4592 35.2888Z" fill="white"/>
<path d="M100.418 35.4766C100.249 35.492 100.156 35.4978 100.141 35.4939C99.883 35.4785 99.7463 35.3996 99.7309 35.2572L99.6674 34.6739C99.6482 34.4506 99.7463 34.312 99.9619 34.2581C100.066 34.235 100.185 34.2177 100.32 34.2061C100.459 34.1984 100.58 34.1984 100.684 34.2061C100.907 34.2254 101.024 34.3467 101.036 34.57L101.065 35.159C101.069 35.3014 100.946 35.3996 100.695 35.4535C100.68 35.4574 100.588 35.4651 100.418 35.4766Z" fill="white"/>
<path d="M78.2195 36.0772C78.4852 36.3506 78.4775 36.6759 78.1964 37.0532C78.0771 37.211 77.9192 37.2957 77.7229 37.3073C77.4457 37.3265 77.2436 37.2707 77.1165 37.1398C76.9895 37.0089 76.9413 36.8049 76.9721 36.5277C76.9914 36.3313 77.0819 36.1754 77.2436 36.0599C77.6286 35.7943 77.9539 35.8001 78.2195 36.0772Z" fill="white"/>
<path d="M76.4294 36.8684C76.3986 37.3612 76.0329 37.5383 75.3322 37.3997C75.0896 37.3497 74.9799 37.1418 75.003 36.776C75.03 36.4064 75.1666 36.2139 75.413 36.1985C76.1253 36.1523 76.4641 36.3756 76.4294 36.8684Z" fill="white"/>
<path d="M88.187 36.7183C88.1985 37.1957 87.9079 37.3939 87.315 37.3131C86.9416 37.263 86.7529 37.0763 86.7491 36.7529C86.7375 36.4257 86.9185 36.2293 87.2919 36.1639C87.8809 36.0599 88.1793 36.2447 88.187 36.7183Z" fill="white"/>
<path d="M78.4507 40.7318C78.4507 40.9089 78.4449 41.0128 78.4334 41.0436C78.3916 41.1473 78.3254 41.2393 78.2405 41.3118C78.1555 41.3844 78.0542 41.4353 77.9453 41.4603C77.8364 41.4852 77.7231 41.4835 77.615 41.4552C77.5069 41.4269 77.4073 41.3729 77.3246 41.2977C77.1629 41.1476 77.082 40.9609 77.082 40.7376C77.082 40.5143 77.1629 40.3276 77.3246 40.1774C77.4069 40.1021 77.5062 40.0478 77.6139 40.0191C77.7217 39.9904 77.8348 39.9882 77.9437 40.0126C78.0525 40.0369 78.1539 40.0872 78.2391 40.1592C78.3244 40.2311 78.391 40.3225 78.4334 40.4257C78.4449 40.4565 78.4507 40.5585 78.4507 40.7318Z" fill="white"/>
<path d="M76.0308 41.4652C76.258 41.4536 76.4216 41.4844 76.5217 41.5576C76.6156 41.6254 76.6907 41.7162 76.7398 41.8211C76.789 41.9261 76.8105 42.0419 76.8024 42.1575C76.7943 42.2732 76.7569 42.3848 76.6936 42.4819C76.6303 42.579 76.5433 42.6584 76.4408 42.7125C76.4216 42.7202 76.308 42.7299 76.1001 42.7414C75.8884 42.753 75.7729 42.7549 75.7536 42.7472C75.6465 42.704 75.552 42.6343 75.4792 42.5446C75.4064 42.4549 75.3576 42.3481 75.3374 42.2344C75.3172 42.1206 75.3262 42.0036 75.3637 41.8943C75.4011 41.785 75.4658 41.687 75.5515 41.6095C75.6439 41.5248 75.8037 41.4767 76.0308 41.4652Z" fill="white"/>
<path d="M78.7394 44.6933C78.7317 44.8743 78.7182 44.9821 78.699 45.0167C78.6245 45.131 78.5221 45.2244 78.4014 45.2882C78.2808 45.3519 78.1459 45.3838 78.0095 45.3809C77.8731 45.378 77.7397 45.3404 77.6219 45.2716C77.504 45.2029 77.4057 45.1052 77.3361 44.9879C77.313 44.9494 77.3034 44.8377 77.3072 44.6529C77.3111 44.4681 77.3265 44.3584 77.3534 44.3238C77.4289 44.21 77.5321 44.1174 77.6533 44.0547C77.7745 43.9919 77.9097 43.9611 78.0461 43.9652C78.1825 43.9692 78.3156 44.008 78.4329 44.0778C78.5502 44.1476 78.6477 44.2462 78.7163 44.3642C78.7317 44.3988 78.7394 44.5085 78.7394 44.6933Z" fill="white"/>
<path d="M79.9568 46.5806C80.3738 46.5558 80.6943 46.2389 80.6725 45.8727C80.6508 45.5066 80.2951 45.2299 79.878 45.2547C79.4609 45.2794 79.1404 45.5963 79.1622 45.9625C79.1839 46.3286 79.5397 46.6053 79.9568 46.5806Z" fill="white"/>
<path d="M77.0993 46.0505C77.107 46.2506 77.0877 46.3796 77.0415 46.4374C76.9658 46.5332 76.8708 46.6121 76.7625 46.669C76.6543 46.7259 76.5352 46.7595 76.4129 46.7676C76.2906 46.7758 76.1678 46.7583 76.0523 46.7164C75.9368 46.6744 75.8312 46.6089 75.7422 46.524C75.6998 46.4816 75.6729 46.345 75.6613 46.114C75.6536 45.8868 75.669 45.7502 75.7075 45.704C75.7882 45.6115 75.8871 45.5368 75.998 45.4846C76.1089 45.4323 76.2292 45.4036 76.3515 45.4003C76.4737 45.3971 76.5951 45.4193 76.7079 45.4656C76.8208 45.5119 76.9226 45.5813 77.0069 45.6693C77.0569 45.7232 77.0877 45.8503 77.0993 46.0505Z" fill="white"/>
<path d="M78.8202 47.2112C78.8318 47.5577 78.722 47.754 78.491 47.8002C77.7634 47.9465 77.3919 47.7636 77.3765 47.2516C77.3649 46.7357 77.7249 46.5317 78.4564 46.6395C78.6912 46.6703 78.8125 46.8608 78.8202 47.2112Z" fill="white"/>
<path d="M82.1002 46.7261L81.875 47.6905C81.8326 47.8868 81.7152 48.01 81.5227 48.0601C81.3456 48.1063 81.1358 48.1024 80.8933 48.0485C80.6815 47.9985 80.5833 47.8637 80.5987 47.6443C80.6218 47.3941 80.6623 47.2035 80.72 47.0726C80.8009 46.8955 80.9395 46.8012 81.1358 46.7896L82.1002 46.7261Z" fill="white"/>
<path d="M81.3264 50.3758C81.542 50.3643 81.6671 50.3662 81.7018 50.3816C81.8182 50.4306 81.9184 50.5116 81.9907 50.6152C82.0631 50.7188 82.1047 50.8407 82.1107 50.9669C82.1168 51.0931 82.087 51.2184 82.0249 51.3284C81.9627 51.4384 81.8707 51.5286 81.7595 51.5885C81.7172 51.6116 81.5901 51.627 81.3784 51.6347C81.1666 51.6424 81.0377 51.6367 80.9915 51.6174C80.876 51.5666 80.7771 51.4842 80.7064 51.3797C80.6357 51.2751 80.5959 51.1528 80.5917 51.0266C80.5875 50.9005 80.6189 50.7758 80.6825 50.6667C80.7461 50.5577 80.8392 50.4689 80.951 50.4105C80.9857 50.3951 81.1108 50.3835 81.3264 50.3758Z" fill="white"/>
<path d="M78.7335 51.0977C78.7335 51.217 78.7181 51.3171 78.6873 51.398C78.6218 51.5866 78.489 51.6925 78.2888 51.7156C77.6035 51.7887 77.2628 51.5789 77.2666 51.0861C77.2705 50.5933 77.6131 50.3893 78.2946 50.474C78.4948 50.5009 78.6276 50.6087 78.693 50.7974C78.72 50.8782 78.7335 50.9783 78.7335 51.0977Z" fill="white"/>
<path d="M76.2849 51.9812C76.4273 51.9851 76.5101 51.9909 76.5332 51.9986C76.7334 52.0371 76.8624 52.1256 76.9201 52.2642C76.9894 52.4298 76.9875 52.655 76.9144 52.9399C76.8682 53.1247 76.7373 53.2305 76.5217 53.2575C76.4947 53.2613 76.3946 53.2594 76.2214 53.2517C76.0481 53.244 75.9499 53.2363 75.9268 53.2286C75.7113 53.1824 75.59 53.065 75.563 52.8763C75.5168 52.5837 75.5361 52.3585 75.6208 52.2007C75.6939 52.0698 75.8306 51.9947 76.0308 51.9755C76.0539 51.9678 76.1386 51.9697 76.2849 51.9812Z" fill="white"/>
<path d="M78.7913 53.7425C78.7913 53.9119 78.7836 54.0159 78.7682 54.0544C78.7182 54.1607 78.6438 54.2538 78.5513 54.3261C78.4587 54.3984 78.3506 54.4478 78.2357 54.4704C78.1208 54.4929 78.0024 54.4879 77.8902 54.4557C77.778 54.4236 77.6752 54.3652 77.5902 54.2854C77.467 54.1699 77.4034 53.9947 77.3996 53.7598C77.3957 53.5288 77.4535 53.3537 77.5728 53.2343C77.6555 53.1521 77.7566 53.0909 77.8677 53.0555C77.9788 53.0201 78.097 53.0116 78.2124 53.0308C78.3278 53.0499 78.4373 53.0961 78.5319 53.1656C78.6265 53.2351 78.7035 53.3259 78.7567 53.4307C78.7759 53.4692 78.7875 53.5731 78.7913 53.7425Z" fill="white"/>
<path d="M81.1186 55.9659C81.3303 56.0467 81.4458 56.0448 81.4651 55.9601C81.3996 55.86 81.288 55.8138 81.1301 55.8215C80.8838 55.3557 80.8125 55.0304 80.9165 54.8456C80.9885 54.7116 81.0971 54.6009 81.2296 54.5262C81.3621 54.4516 81.5131 54.4162 81.665 54.424C81.8169 54.4319 81.9634 54.4828 82.0875 54.5707C82.2116 54.6586 82.3082 54.78 82.366 54.9206C82.4122 55.0323 82.3775 55.2286 82.262 55.5097C82.2004 55.6675 82.1696 55.8331 82.1696 56.0063V56.9014C82.1696 57.067 82.0868 57.1497 81.9213 57.1497H81.1879C80.98 57.1497 80.8587 57.0477 80.8241 56.8437C80.7586 56.451 80.8568 56.1584 81.1186 55.9659Z" fill="white"/>
<path d="M107.284 55.5328C107.4 55.7021 107.384 55.962 107.238 56.3124C107.203 56.3967 107.146 56.4704 107.072 56.5261C106.998 56.5819 106.91 56.6177 106.817 56.63C106.393 56.68 106.118 56.6146 105.991 56.4336C105.868 56.2527 105.902 55.9736 106.095 55.5963C106.138 55.5124 106.202 55.4416 106.28 55.3909C106.358 55.3402 106.448 55.3114 106.539 55.3075C106.921 55.2921 107.169 55.3672 107.284 55.5328Z" fill="white"/>
<path d="M84.9872 57.4103C85.3436 57.6095 85.78 57.5069 85.9621 57.1811C86.1441 56.8554 86.0028 56.4299 85.6465 56.2307C85.2901 56.0316 84.8536 56.1342 84.6716 56.4599C84.4895 56.7856 84.6309 57.2112 84.9872 57.4103Z" fill="white"/>
<path d="M92.22 58.1569C92.6388 58.2002 93.0083 57.9446 93.0454 57.5861C93.0824 57.2276 92.773 56.9019 92.3542 56.8587C91.9354 56.8154 91.5659 57.0709 91.5289 57.4294C91.4918 57.7879 91.8013 58.1136 92.22 58.1569Z" fill="white"/>
<path d="M78.9183 57.5944C78.9106 57.8215 78.8471 57.9871 78.7277 58.091C78.6347 58.171 78.5251 58.2293 78.4068 58.262C78.2885 58.2946 78.1645 58.3006 78.0436 58.2796C77.9228 58.2586 77.808 58.2112 77.7076 58.1406C77.6073 58.0701 77.5237 57.9782 77.463 57.8716C77.4399 57.8331 77.4303 57.7272 77.4342 57.554C77.438 57.3769 77.4534 57.271 77.4804 57.2363C77.5468 57.1329 77.6352 57.0455 77.7394 56.9804C77.8436 56.9153 77.961 56.874 78.083 56.8597C78.2051 56.8453 78.3288 56.8582 78.4452 56.8974C78.5617 56.9365 78.6681 57.001 78.7566 57.0862C78.8683 57.194 78.9222 57.3634 78.9183 57.5944Z" fill="white"/>
<path d="M84.1505 57.502C84.1813 57.8754 84.0793 58.0872 83.8444 58.1372C83.1591 58.2835 82.7972 58.1103 82.7587 57.6175C82.7164 57.1285 83.0456 56.8995 83.7462 56.9303C83.9849 56.9418 84.1197 57.1324 84.1505 57.502Z" fill="white"/>
<path d="M99.0957 58.553C99.2266 58.5684 99.3344 58.5915 99.4191 58.6223C99.627 58.6955 99.7309 58.8418 99.7309 59.0612V59.3904C99.7309 59.6368 99.6077 59.7696 99.3613 59.7888C99.2227 59.7965 99.0841 59.7927 98.9455 59.7773C98.8108 59.758 98.676 59.7292 98.5413 59.6907C98.3064 59.6098 98.2198 59.45 98.2814 59.2113L98.3623 58.8937C98.4123 58.682 98.5471 58.5646 98.7665 58.5415C98.8589 58.5338 98.9686 58.5376 99.0957 58.553Z" fill="white"/>
</svg>
