<svg width="255" height="89" viewBox="0 0 255 89" fill="none" xmlns="http://www.w3.org/2000/svg">
<rect x="0.5" y="0.5" width="254" height="88" rx="44" stroke="white" stroke-opacity="0.2"/>
<path d="M156.906 44.5809C156.906 41.7348 159.213 39.4276 162.06 39.4276V39.4276C164.906 39.4276 167.213 41.7348 167.213 44.5809V44.5809C167.213 47.427 164.906 49.7342 162.06 49.7342V49.7342C159.213 49.7342 156.906 47.427 156.906 44.5809V44.5809Z" fill="white"/>
<path d="M160.454 32.237C159.258 32.3879 158.398 32.6001 157.409 32.9912C155.353 33.8012 153.884 34.924 152.594 36.6502C151.002 38.7841 150.119 41.5381 150.119 44.3759C150.125 48.2025 151.348 51.3699 153.745 53.7608C154.527 54.5429 155.041 54.9451 155.845 55.4087C157.655 56.459 159.672 56.9729 162.018 56.9729C166.308 56.9729 169.682 55.2356 171.883 51.8894C172.833 50.4482 173.509 48.6941 173.794 46.9177C174.067 45.2306 174.067 44.1525 173.799 42.3649C173.57 40.8231 173.045 39.2645 172.308 37.9182C171.749 36.8904 170.604 35.4715 169.827 34.8402C168.861 34.0526 167.721 33.3599 166.844 33.0303C165.604 32.5666 164.917 32.3934 163.66 32.2314C163.107 32.1588 161.023 32.1644 160.454 32.237ZM162.727 36.5273C164.705 36.6893 166.325 37.5384 167.531 39.0355C167.956 39.5606 168.084 39.7673 168.414 40.432C169.537 42.7112 169.682 45.6496 168.794 47.979C167.66 50.9398 165.174 52.6827 162.074 52.6827C159.599 52.6771 157.499 51.5878 156.214 49.6326C155.577 48.6606 155.186 47.6774 154.912 46.359C154.772 45.6719 154.772 43.4486 154.912 42.8118C155.331 40.9236 155.946 39.6947 157.046 38.5439C157.549 38.0188 158.398 37.4211 159.113 37.0859C159.655 36.8345 160.655 36.5887 161.375 36.5328C161.666 36.5049 161.945 36.4826 161.99 36.4826C162.035 36.477 162.37 36.4993 162.727 36.5273Z" fill="white"/>
<path d="M83.095 32.3821C83.0112 32.4771 83 32.6782 83 34.5049V36.5271H87.1003C91.4743 36.5271 91.6307 36.5327 92.4072 36.812C92.7592 36.9349 93.2954 37.2701 93.5356 37.5215C93.9211 37.9237 94.1054 38.365 94.1501 39.013C94.2507 40.3481 93.6362 41.2084 92.2676 41.6497L91.7983 41.8061L87.402 41.8229L83 41.8396V48.5543C83 53.7048 83.0168 55.2913 83.067 55.3416C83.1173 55.3918 83.6592 55.4086 85.1619 55.4086C87.0333 55.4086 87.1897 55.403 87.2344 55.308C87.2623 55.2578 87.2902 53.2523 87.2958 50.6659C87.3014 48.1632 87.307 46.1075 87.3182 46.1019C87.3237 46.0963 88.4131 46.0796 89.7314 46.0628C92.2843 46.0349 92.2229 46.0405 93.4351 45.7221C94.8093 45.3589 96.0718 44.6439 96.9153 43.7501C97.7309 42.8787 98.2113 41.862 98.4515 40.4933C98.5521 39.8956 98.5353 38.2086 98.4236 37.7561C98.3901 37.6164 98.3119 37.298 98.2504 37.041C98.1275 36.5495 97.7309 35.6724 97.4125 35.2143C97.0997 34.7619 96.3567 34.0524 95.8316 33.7061C95.3121 33.3709 94.4015 32.9352 93.9434 32.8067C93.7926 32.762 93.5356 32.6894 93.3792 32.6447C93.2172 32.6 92.7927 32.505 92.4407 32.438C91.8263 32.3207 91.6252 32.3151 87.4969 32.2983C83.3296 32.276 83.1899 32.276 83.095 32.3821Z" fill="white"/>
<path d="M104.189 32.7954C104.111 32.9127 104.027 33.0971 103.725 33.8736C103.703 33.935 103.642 34.0858 103.597 34.2087C103.547 34.3316 103.424 34.6556 103.318 34.935C103.211 35.2087 103.027 35.6779 102.915 35.9684C102.804 36.2589 102.658 36.6388 102.597 36.8063C102.536 36.9739 102.418 37.2868 102.329 37.5046C102.245 37.7169 102.111 38.0577 102.033 38.2588C101.955 38.4599 101.753 38.9738 101.586 39.4039C101.145 40.5324 100.826 41.3591 100.675 41.7781C100.603 41.9792 100.519 42.1915 100.491 42.2529C100.463 42.3144 100.402 42.4764 100.346 42.616C100.295 42.7557 100.217 42.94 100.178 43.035C100.105 43.2026 99.7424 44.1522 99.5245 44.7388C99.4631 44.9064 99.3402 45.2192 99.2564 45.4371C99.1726 45.6494 99.0329 46.0013 98.9491 46.2192C98.8654 46.4314 98.7257 46.7834 98.6419 47.0012C98.4576 47.4649 98.2509 48.0012 98.0889 48.4257C98.0274 48.5933 97.8431 49.057 97.6867 49.4592C97.5302 49.8558 97.3347 50.3753 97.2453 50.6044C97.1616 50.8334 96.9493 51.3864 96.7761 51.8333C96.5973 52.2802 96.3962 52.8165 96.318 53.0344C96.2398 53.2466 96.1449 53.498 96.1002 53.593C96.0611 53.6824 95.9829 53.8723 95.9326 54.012C95.8767 54.1516 95.8153 54.3136 95.7929 54.3751C95.6868 54.6544 95.5527 55.0007 95.508 55.1013C95.4131 55.3359 95.2902 55.6487 95.2902 55.6655C95.2902 55.6711 95.3293 55.7213 95.3795 55.766C95.4522 55.8442 95.7371 55.8554 97.6085 55.8554H99.7536L99.8374 55.699C99.882 55.6096 100.022 55.2353 100.145 54.8667C100.351 54.2522 100.407 54.1013 100.547 53.7606C100.569 53.6991 100.653 53.4477 100.731 53.202C100.809 52.9562 100.949 52.5428 101.044 52.2802C101.262 51.6881 101.53 50.9116 101.86 49.934C101.999 49.5206 102.133 49.1296 102.167 49.0681C102.212 48.962 102.698 47.5822 103.061 46.4985C103.156 46.2192 103.251 45.9454 103.278 45.884C103.373 45.6494 103.563 45.1298 103.837 44.3198C104.323 42.9065 104.351 42.8395 104.39 42.8395C104.412 42.8395 104.496 43.035 104.574 43.2696C104.658 43.5098 104.781 43.8562 104.848 44.0405C104.915 44.2249 105.049 44.6159 105.155 44.9064C105.256 45.1969 105.457 45.7611 105.597 46.1633C105.742 46.5599 105.982 47.2414 106.133 47.6716C106.289 48.1017 106.485 48.6771 106.58 48.9564C106.669 49.2301 106.77 49.5095 106.798 49.5709C106.826 49.6323 106.943 49.9452 107.055 50.2692C107.407 51.2859 108.133 53.3304 108.479 54.2913C108.602 54.6432 108.775 55.1236 108.854 55.3527C108.932 55.5817 109.021 55.7884 109.055 55.8107C109.127 55.861 113.228 55.8722 113.356 55.8219C113.496 55.7716 113.462 55.5538 113.244 54.9951C112.887 54.0734 112.764 53.7606 112.68 53.5371C112.585 53.2857 112.557 53.2131 112.384 52.783C112.323 52.6154 112.244 52.4255 112.216 52.364C112.194 52.3026 112.004 51.811 111.797 51.2747C111.591 50.7384 111.401 50.2468 111.379 50.1854C111.306 50.029 111.144 49.61 110.876 48.9006C110.747 48.5598 110.613 48.2079 110.574 48.1185C110.535 48.0235 110.474 47.8727 110.44 47.7833C110.339 47.5096 109.988 46.599 109.719 45.9119C109.58 45.56 109.379 45.0405 109.273 44.7667C109.166 44.4874 108.993 44.0517 108.893 43.7891C108.792 43.5266 108.619 43.0853 108.513 42.8116C108.407 42.5322 108.2 42.0071 108.055 41.6384C107.664 40.6441 107.546 40.3368 107.384 39.9067C107.301 39.6888 107.167 39.3369 107.077 39.1246C106.993 38.9068 106.725 38.2308 106.491 37.6163C106.256 37.0019 105.993 36.3203 105.904 36.1081C105.82 35.8902 105.641 35.4377 105.513 35.1025C105.384 34.7618 105.256 34.4378 105.228 34.3763C105.178 34.2702 104.843 33.3764 104.72 33.0356C104.647 32.8345 104.53 32.7284 104.362 32.7284C104.295 32.7284 104.217 32.7619 104.189 32.7954Z" fill="white"/>
<path d="M123.584 32.8122C123.187 32.8513 122.707 32.9016 122.522 32.9184C121.478 33.0189 119.137 33.5943 118.629 33.8736C118.551 33.9183 118.456 33.9574 118.422 33.9574C118.288 33.9574 116.886 34.6948 116.422 35.002C115.378 35.7059 114.299 36.8231 113.685 37.8398C113.523 38.1136 113.11 38.9347 113.037 39.1303C112.992 39.2476 112.892 39.5269 112.814 39.7447C112.071 41.7893 111.909 44.7388 112.389 47.3364C112.529 48.1185 112.635 48.4705 113.093 49.7274C113.165 49.9285 113.378 50.3642 113.501 50.5485C113.529 50.5932 113.646 50.7943 113.763 50.9954C113.875 51.1965 113.981 51.3697 113.998 51.3865C114.02 51.4032 114.182 51.6099 114.361 51.8501C114.724 52.3305 115.271 52.8668 115.774 53.2411C115.953 53.3696 116.109 53.4981 116.126 53.5148C116.176 53.5819 117.16 54.1684 117.495 54.336C118.852 55.0119 120.752 55.5203 122.662 55.7158C124.137 55.8666 129.5 55.9225 129.634 55.7884C129.684 55.7382 129.701 54.0623 129.701 48.5822V41.443L125.304 41.4541L120.902 41.4709V43.6495V45.8282L123.126 45.8449L125.343 45.8561V48.7609V51.6658H124.383C122.215 51.6658 120.394 51.1574 119.115 50.1966C117.126 48.7107 116.288 46.303 116.601 43.0071C116.757 41.3871 117.456 39.8676 118.484 38.9012C119.483 37.9627 120.578 37.4432 122.277 37.1025C122.662 37.0298 123.187 37.0075 125.148 36.9907C126.472 36.9796 128.03 36.9684 128.611 36.9572L129.673 36.946L129.69 34.9071C129.701 33.0301 129.695 32.8625 129.606 32.7955C129.472 32.7005 124.617 32.7173 123.584 32.8122Z" fill="white"/>
<path d="M142.353 32.7899C139.906 32.9798 138.029 33.4379 136.18 34.3038C135.706 34.5272 135.549 34.6166 134.923 35.0411C134.259 35.488 133.449 36.2254 132.929 36.8623C131.778 38.2812 131.035 40.1861 130.751 42.4485C130.6 43.6775 130.695 46.4036 130.929 47.3085C130.957 47.4147 131.03 47.7275 131.091 48.0068C131.348 49.1464 131.801 50.2022 132.482 51.2412C133.644 53.0009 135.354 54.2187 137.8 55.0287C138.348 55.2131 139.124 55.3974 139.979 55.5426C140.42 55.6208 140.566 55.6376 141.225 55.7158C142.057 55.8108 143.415 55.8555 145.588 55.8555C148.04 55.8555 148.079 55.8555 148.196 55.7382C148.275 55.66 148.303 55.5817 148.28 55.5035C148.263 55.4365 148.247 52.2468 148.247 48.409V41.443H143.834H139.42L139.432 43.6328L139.448 45.8282L141.672 45.8449L143.889 45.8561L143.878 48.7498L143.861 51.6379L142.912 51.6546C142.158 51.6658 141.806 51.6434 141.208 51.5541C140.795 51.487 140.381 51.4144 140.286 51.3865C139.041 51.0066 138.594 50.8111 137.867 50.3251C136.979 49.733 136.287 48.9229 135.834 47.9509C135.292 46.7834 135.097 45.8282 135.097 44.264C135.085 42.4653 135.46 41.0184 136.219 39.8621C136.493 39.4431 137.381 38.4823 137.493 38.4823C137.527 38.4823 137.61 38.4264 137.678 38.3538C137.772 38.2532 138.37 37.9236 139.102 37.5773C139.247 37.5047 139.823 37.3371 140.258 37.2365C141.258 36.9963 141.688 36.974 145.023 36.9572L148.252 36.946V34.9071C148.247 33.0357 148.241 32.8625 148.152 32.7955C148.073 32.7396 147.487 32.7284 145.481 32.734C144.068 32.7396 142.66 32.7675 142.353 32.7899Z" fill="white"/>
</svg>
