<svg width="255" height="89" viewBox="0 0 255 89" fill="none" xmlns="http://www.w3.org/2000/svg">
<rect x="0.5" y="0.5" width="254" height="88" rx="44" stroke="white" stroke-opacity="0.2"/>
<g clip-path="url(#clip0_781_165)">
<path d="M88.4394 44.0858L81.0134 33.0994C81.0072 33.0903 81.0036 33.0796 81.003 33.0686C81.0025 33.0576 81.0049 33.0466 81.0101 33.0369C81.0152 33.0271 81.023 33.019 81.0324 33.0133C81.0419 33.0076 81.0527 33.0046 81.0637 33.0046H87.5096C87.5196 33.0046 87.5294 33.007 87.5381 33.0117C87.5469 33.0163 87.5544 33.0231 87.56 33.0313L92.8334 40.8303C92.8402 40.8404 92.8438 40.8522 92.8438 40.8644C92.8438 40.8765 92.8402 40.8884 92.8334 40.8984L83.1601 55.21C83.1545 55.2182 83.147 55.2249 83.1382 55.2296C83.1294 55.2342 83.1197 55.2366 83.1097 55.2366L81.0608 55.2351C81.0498 55.2351 81.0389 55.2322 81.0295 55.2265C81.02 55.2208 81.0123 55.2126 81.0071 55.2029C81.0019 55.1932 80.9995 55.1822 81.0001 55.1712C81.0007 55.1602 81.0043 55.1495 81.0105 55.1404L88.4394 44.1539C88.4462 44.1439 88.4498 44.132 88.4498 44.1199C88.4498 44.1077 88.4462 44.0959 88.4394 44.0858Z" fill="white"/>
<path d="M95.0778 44.1463L102.513 55.1505C102.518 55.1586 102.521 55.1679 102.522 55.1776C102.522 55.1872 102.52 55.1968 102.515 55.2053C102.511 55.2138 102.504 55.2209 102.496 55.2259C102.487 55.2309 102.478 55.2335 102.468 55.2334L96.0075 55.2364C95.9988 55.2364 95.9901 55.2343 95.9824 55.2301C95.9746 55.226 95.968 55.22 95.9631 55.2127L90.6838 47.3989C90.6779 47.3901 90.6748 47.3798 90.6748 47.3693C90.6748 47.3587 90.6779 47.3484 90.6838 47.3397L100.36 33.0237C100.365 33.0164 100.372 33.0104 100.379 33.0063C100.387 33.0021 100.396 33 100.404 33L102.465 33.0074C102.475 33.0074 102.484 33.01 102.493 33.0149C102.501 33.0199 102.508 33.027 102.512 33.0355C102.517 33.044 102.519 33.0536 102.519 33.0633C102.518 33.0729 102.515 33.0823 102.51 33.0903L95.0778 44.0871C95.072 44.0959 95.0688 44.1062 95.0688 44.1167C95.0688 44.1273 95.072 44.1376 95.0778 44.1463Z" fill="white"/>
<path d="M116.707 51.3489C116.786 51.2868 116.826 51.306 116.826 51.4067V54.036C116.826 54.0644 116.818 54.0922 116.803 54.1163C116.788 54.1404 116.767 54.1597 116.741 54.1722C113.69 55.6748 109.708 55.7814 107.064 53.429C105.019 51.611 104.18 48.8633 103.986 46.12C103.694 42.0147 104.4 36.799 108.508 34.682C111.015 33.391 114.284 33.6797 116.76 34.944C116.782 34.9552 116.8 34.9719 116.812 34.9926C116.825 35.0132 116.832 35.0369 116.832 35.061L116.83 37.7302C116.83 37.7421 116.827 37.7536 116.82 37.7636C116.814 37.7735 116.805 37.7814 116.794 37.7864C116.783 37.7914 116.771 37.7932 116.76 37.7916C116.748 37.7901 116.737 37.7852 116.728 37.7776C115.08 36.4038 112.759 35.739 110.665 36.3416C107.685 37.2002 106.985 40.7356 106.874 43.3752C106.729 46.8513 107.001 52.5984 111.733 52.9597C113.518 53.0949 115.176 52.558 116.707 51.3489Z" fill="white"/>
<path d="M123.71 44.5254V54.7835C123.71 54.7992 123.703 54.8143 123.692 54.8254C123.681 54.8365 123.666 54.8427 123.65 54.8427L120.966 54.8412C120.951 54.8412 120.936 54.835 120.924 54.8239C120.913 54.8128 120.907 54.7977 120.907 54.782L120.906 34.2777C120.906 34.262 120.912 34.247 120.923 34.2358C120.934 34.2247 120.949 34.2185 120.965 34.2185H123.65C123.666 34.2185 123.681 34.2247 123.692 34.2358C123.703 34.247 123.71 34.262 123.71 34.2777V42.059C123.71 42.0747 123.716 42.0897 123.727 42.1009C123.738 42.112 123.753 42.1182 123.769 42.1182H131.281C131.296 42.1182 131.311 42.112 131.322 42.1009C131.334 42.0897 131.34 42.0747 131.34 42.059L131.341 34.2777C131.341 34.262 131.348 34.247 131.359 34.2358C131.37 34.2247 131.385 34.2185 131.401 34.2185H134.086C134.102 34.2185 134.117 34.2247 134.128 34.2358C134.139 34.247 134.145 34.262 134.145 34.2777L134.144 54.7835C134.144 54.7992 134.138 54.8143 134.126 54.8254C134.115 54.8365 134.1 54.8427 134.085 54.8427H131.401C131.385 54.8427 131.37 54.8365 131.359 54.8254C131.348 54.8143 131.341 54.7992 131.341 54.7835V44.5254C131.341 44.5097 131.335 44.4947 131.324 44.4835C131.313 44.4724 131.298 44.4662 131.282 44.4662H123.769C123.753 44.4662 123.738 44.4724 123.727 44.4835C123.716 44.4947 123.71 44.5097 123.71 44.5254Z" fill="white"/>
<path d="M139.373 54.8412L136.696 54.8442C136.681 54.8441 136.666 54.8405 136.653 54.8337C136.639 54.8268 136.627 54.8169 136.618 54.8046C136.609 54.7924 136.603 54.7782 136.6 54.7633C136.598 54.7483 136.599 54.7329 136.603 54.7183L142.854 34.2895C142.86 34.2695 142.872 34.2519 142.889 34.2394C142.905 34.2268 142.926 34.22 142.947 34.22H146.186C146.207 34.22 146.227 34.2268 146.244 34.2394C146.261 34.2519 146.273 34.2695 146.279 34.2895L152.527 54.7183C152.531 54.7329 152.532 54.7483 152.53 54.7633C152.527 54.7782 152.521 54.7924 152.512 54.8046C152.503 54.8169 152.491 54.8268 152.477 54.8337C152.464 54.8405 152.449 54.8441 152.434 54.8442L149.757 54.8427C149.736 54.8425 149.715 54.8355 149.698 54.8227C149.682 54.8099 149.669 54.792 149.664 54.7716L148.198 49.5397C148.192 49.5191 148.18 49.501 148.163 49.4882C148.145 49.4753 148.125 49.4685 148.103 49.4686H141.028C141.007 49.4685 140.986 49.4753 140.969 49.4882C140.952 49.501 140.939 49.5191 140.933 49.5397L139.466 54.7701C139.46 54.7905 139.448 54.8084 139.431 54.8212C139.415 54.834 139.394 54.841 139.373 54.8412ZM141.634 47.1725C141.632 47.18 141.631 47.1878 141.633 47.1955C141.634 47.2031 141.638 47.2103 141.642 47.2164C141.647 47.2226 141.653 47.2276 141.66 47.231C141.667 47.2344 141.675 47.2362 141.682 47.2361H147.438C147.446 47.2362 147.454 47.2344 147.461 47.231C147.468 47.2276 147.474 47.2226 147.479 47.2164C147.483 47.2103 147.487 47.2031 147.488 47.1955C147.49 47.1878 147.489 47.18 147.487 47.1725L144.609 36.8522C144.607 36.8413 144.6 36.8316 144.592 36.8247C144.583 36.8178 144.572 36.814 144.56 36.814C144.549 36.814 144.538 36.8178 144.529 36.8247C144.521 36.8316 144.514 36.8413 144.512 36.8522L141.634 47.1725Z" fill="white"/>
<path d="M157.319 34.2835H154.692C154.66 34.2835 154.633 34.31 154.633 34.3427V54.8706C154.633 54.9033 154.66 54.9299 154.692 54.9299H157.319C157.352 54.9299 157.378 54.9033 157.378 54.8706V34.3427C157.378 34.31 157.352 34.2835 157.319 34.2835Z" fill="white"/>
<path d="M171.94 51.2924C172.004 51.4267 172.036 51.4193 172.036 51.2702L172.035 34.6181C172.035 34.5776 172.055 34.5574 172.095 34.5574H174.908C174.933 34.5574 174.956 34.5669 174.973 34.5838C174.99 34.6008 175 34.6237 175 34.6477V55.0543C175 55.07 174.994 55.085 174.983 55.0961C174.972 55.1072 174.957 55.1135 174.941 55.1135H171.266C171.244 55.1135 171.222 55.1071 171.202 55.095C171.183 55.083 171.168 55.0658 171.158 55.0454L163.192 38.3207C163.179 38.2941 163.162 38.2911 163.14 38.3118C163.129 38.3227 163.124 38.3365 163.124 38.3533C163.124 43.9218 163.124 49.4769 163.125 55.0187C163.125 55.0819 163.094 55.1135 163.031 55.1135H160.241C160.187 55.1135 160.16 55.0858 160.16 55.0306L160.158 34.6181C160.158 34.5766 160.179 34.5559 160.221 34.5559L163.88 34.5574C163.94 34.5574 163.982 34.584 164.006 34.6373L171.94 51.2924Z" fill="white"/>
</g>
<defs>
<clipPath id="clip0_781_165">
<rect width="94" height="23" fill="white" transform="translate(81 33)"/>
</clipPath>
</defs>
</svg>
