<svg width="255" height="89" viewBox="0 0 255 89" fill="none" xmlns="http://www.w3.org/2000/svg">
<rect x="0.5" y="0.5" width="254" height="88" rx="44" stroke="white" stroke-opacity="0.2"/>
<path d="M177.511 45.2086L170.095 35.2248C170.08 35.2039 170.071 35.1791 170.069 35.1532C170.066 35.1273 170.071 35.1013 170.083 35.0781C170.095 35.0548 170.112 35.0352 170.134 35.0215C170.156 35.0077 170.182 35.0003 170.208 35L174.912 35.0346C174.933 35.0348 174.955 35.0401 174.975 35.0501C174.994 35.0601 175.011 35.0746 175.024 35.0922L182.497 45.2086C182.515 45.2329 182.525 45.2621 182.525 45.2922C182.525 45.3223 182.515 45.3516 182.497 45.3758L175.024 55.4922C175.011 55.5099 174.994 55.5243 174.975 55.5343C174.955 55.5443 174.933 55.5496 174.912 55.5498L170.205 55.5873C170.179 55.587 170.154 55.5796 170.132 55.5658C170.11 55.5521 170.092 55.5325 170.08 55.5092C170.068 55.486 170.063 55.46 170.066 55.4341C170.068 55.4082 170.077 55.3834 170.093 55.3625L177.511 45.3758C177.529 45.3516 177.539 45.3223 177.539 45.2922C177.539 45.2621 177.529 45.2329 177.511 45.2086Z" fill="white"/>
<path d="M190.072 35.2074L184.417 42.7903C184.407 42.8041 184.393 42.8152 184.378 42.8229C184.362 42.8306 184.345 42.8345 184.328 42.8345C184.311 42.8345 184.294 42.8306 184.278 42.8229C184.263 42.8152 184.249 42.8041 184.239 42.7903L181.89 39.6315C181.875 39.6122 181.868 39.589 181.868 39.5652C181.868 39.5414 181.875 39.5182 181.89 39.4989L185.172 35.0661C185.183 35.0517 185.197 35.0399 185.213 35.0319C185.229 35.0239 185.247 35.0198 185.265 35.02L189.98 35.0287C190.001 35.0284 190.021 35.034 190.039 35.0447C190.057 35.0554 190.072 35.071 190.081 35.0895C190.091 35.1081 190.095 35.1289 190.093 35.1497C190.092 35.1706 190.084 35.1905 190.072 35.2074Z" fill="white"/>
<path d="M185.169 55.5126L181.854 51.0539C181.84 51.0357 181.833 51.0134 181.833 50.9905C181.833 50.9675 181.84 50.9452 181.854 50.9271L184.249 47.7567C184.259 47.7437 184.272 47.7333 184.287 47.7262C184.301 47.7191 184.318 47.7156 184.334 47.7158C184.35 47.7161 184.366 47.7202 184.38 47.7278C184.395 47.7354 184.407 47.7463 184.417 47.7596L190.083 55.4031C190.095 55.4185 190.102 55.437 190.104 55.4564C190.106 55.4759 190.102 55.4954 190.094 55.5129C190.085 55.5303 190.071 55.545 190.055 55.5551C190.038 55.5653 190.019 55.5705 189.999 55.5702L185.252 55.5529C185.236 55.5532 185.22 55.5496 185.206 55.5426C185.191 55.5356 185.179 55.5253 185.169 55.5126Z" fill="white"/>
<path d="M77.9353 38.9341V55.4661C77.9353 55.4906 77.9256 55.5141 77.9083 55.5314C77.891 55.5487 77.8675 55.5584 77.8431 55.5584H73.6293C73.6049 55.5584 73.5814 55.5487 73.5641 55.5314C73.5468 55.5141 73.5371 55.4906 73.5371 55.4661L73.54 38.9341C73.54 38.9096 73.5303 38.8861 73.513 38.8688C73.4957 38.8515 73.4722 38.8418 73.4478 38.8418H65.9916C65.9671 38.8418 65.9437 38.8321 65.9264 38.8148C65.9091 38.7975 65.8994 38.7741 65.8994 38.7496L65.8965 35.1123C65.8965 35.0878 65.9062 35.0644 65.9235 35.0471C65.9408 35.0298 65.9643 35.0201 65.9887 35.0201H85.4865C85.511 35.0201 85.5345 35.0298 85.5518 35.0471C85.5691 35.0644 85.5788 35.0878 85.5788 35.1123L85.5759 38.7496C85.5759 38.7617 85.5735 38.7737 85.5689 38.7849C85.5642 38.7961 85.5574 38.8063 85.5489 38.8148C85.5403 38.8234 85.5301 38.8302 85.519 38.8348C85.5078 38.8394 85.4958 38.8418 85.4837 38.8418H78.0275C78.003 38.8418 77.9796 38.8515 77.9623 38.8688C77.945 38.8861 77.9353 38.9096 77.9353 38.9341Z" fill="white"/>
<path d="M120.19 42.9518L118.441 42.9489C118.331 42.947 118.276 42.8913 118.276 42.7818L118.273 39.5912C118.273 39.4836 118.327 39.4298 118.435 39.4298H120.199C120.314 39.4298 120.372 39.3722 120.372 39.2569V35.1498C120.372 35.0652 120.414 35.023 120.498 35.023L124.441 35.0172C124.462 35.0172 124.482 35.0251 124.496 35.0392C124.511 35.0532 124.519 35.0723 124.519 35.0921L124.516 39.352C124.516 39.3622 124.518 39.3723 124.522 39.3818C124.526 39.3912 124.532 39.3998 124.539 39.407C124.546 39.4142 124.555 39.42 124.564 39.4239C124.574 39.4278 124.584 39.4298 124.594 39.4298H130.566C130.652 39.4298 130.696 39.473 130.696 39.5595L130.693 42.8163C130.693 42.8515 130.678 42.8852 130.653 42.9101C130.628 42.935 130.593 42.9489 130.557 42.9489H124.669C124.561 42.9489 124.508 43.0037 124.508 43.1132C124.527 45.2499 124.526 47.4528 124.505 49.722C124.493 50.8489 125.064 51.6934 126.248 51.7165C127.615 51.7434 129.043 51.7472 130.534 51.728C130.642 51.728 130.696 51.7808 130.696 51.8865L130.69 55.4172C130.69 55.4511 130.677 55.4836 130.654 55.5079C130.631 55.5321 130.599 55.5461 130.566 55.5469C128.833 55.5738 127.108 55.5718 125.392 55.5411C121.473 55.4662 120.337 52.7281 120.366 49.3704C120.381 47.422 120.381 45.3402 120.366 43.1247C120.364 43.0114 120.305 42.9537 120.19 42.9518Z" fill="white"/>
<path d="M136.124 40.8593C136.124 41.0918 136.203 41.1225 136.36 40.9515C137.943 39.2395 140.347 38.9657 142.494 39.1963C146.439 39.6171 149.01 42.4243 149.088 46.4651C149.134 48.8265 149.139 51.8038 149.103 55.3969C149.103 55.5045 149.048 55.5583 148.938 55.5583H145.183C145.144 55.5583 145.106 55.5429 145.078 55.5154C145.05 55.488 145.034 55.4506 145.033 55.4113C144.993 53.3631 144.993 51.3484 145.033 49.3674C145.068 47.6247 145.003 46.4247 144.84 45.7676C144.467 44.2746 143.311 43.4062 141.373 43.1621C138.632 42.8134 136.11 43.9778 136.127 47.0242C136.14 49.8987 136.143 52.7127 136.136 55.4661C136.136 55.4921 136.126 55.517 136.108 55.5354C136.09 55.5538 136.066 55.5641 136.041 55.5641L132.173 55.5583C132.088 55.5583 132.046 55.516 132.046 55.4315V35.1843C132.046 35.0748 132.102 35.02 132.213 35.02L135.986 35.0229C136.028 35.0229 136.068 35.0393 136.098 35.0685C136.128 35.0977 136.144 35.1373 136.144 35.1785L136.124 40.8593Z" fill="white"/>
<path d="M154.442 48.3418C154.679 49.7924 155.388 50.7887 156.569 51.3306C158.705 52.3105 162.218 52.1894 163.625 49.9442C163.692 49.8386 163.788 49.7857 163.913 49.7857L168.026 49.7828C168.038 49.7829 168.05 49.7858 168.062 49.7913C168.073 49.7969 168.082 49.8049 168.09 49.8148C168.098 49.8247 168.103 49.8363 168.106 49.8487C168.109 49.8611 168.109 49.8741 168.107 49.8866C167.034 54.5759 162.85 56.0487 158.526 55.8354C153.047 55.5673 149.857 52.1577 150.306 46.5952C150.805 40.4331 155.892 38.5453 161.316 39.2773C166.187 39.9345 168.458 43.2778 168.357 48.019C168.357 48.0475 168.345 48.0746 168.324 48.0945C168.304 48.1145 168.276 48.1256 168.248 48.1256H154.627C154.481 48.1256 154.419 48.1976 154.442 48.3418ZM163.512 44.8082C161.639 42.5025 156.881 42.4391 155.048 44.9293C155.035 44.9458 155.027 44.9656 155.025 44.9865C155.023 45.0073 155.027 45.0283 155.037 45.0472C155.046 45.066 155.061 45.082 155.079 45.0932C155.097 45.1045 155.118 45.1106 155.14 45.1108L163.51 45.108C163.524 45.1079 163.538 45.1047 163.55 45.0984C163.563 45.0921 163.574 45.083 163.583 45.0717C163.592 45.0603 163.598 45.0471 163.601 45.033C163.605 45.0188 163.605 45.0041 163.602 44.9898C163.586 44.9245 163.557 44.8639 163.512 44.8082Z" fill="white"/>
<path d="M91.4526 41.9834C93.2193 39.4385 96.0784 39.303 98.9923 39.4442C99.1095 39.45 99.1681 39.5105 99.1681 39.6258L99.1652 42.7529C99.1652 42.8951 99.0932 42.9643 98.9491 42.9605C95.9516 42.874 92.8418 43.2083 91.5736 46.3412C91.3623 46.8639 91.2566 47.6901 91.2566 48.8199C91.2566 50.9854 91.2604 53.172 91.2681 55.3797C91.2681 55.4988 91.2086 55.5584 91.0894 55.5584L87.3196 55.5613C87.21 55.5613 87.1553 55.5065 87.1553 55.397V39.6229C87.1553 39.4961 87.2196 39.4327 87.3484 39.4327L91.1442 39.4298C91.2249 39.4298 91.2652 39.4702 91.2652 39.5509L91.2624 41.9229C91.2604 42.1458 91.3238 42.1659 91.4526 41.9834Z" fill="white"/>
<path d="M112.919 53.9905C112.308 54.7264 111.587 55.2154 110.755 55.4575C106.547 56.6824 101.912 55.2845 100.538 50.8604C100.222 49.8497 100.077 48.5047 100.102 46.8254C100.139 44.5235 100.143 42.1256 100.114 39.6315C100.114 39.4989 100.18 39.4326 100.313 39.4326L104.068 39.4298C104.193 39.4298 104.255 39.4922 104.253 39.6171C104.226 42.676 104.23 45.5976 104.264 48.3818C104.299 51.2668 107.331 52.1978 109.789 51.7942C112.007 51.4273 113.114 50.1716 113.112 48.0273C113.107 45.1931 113.105 42.3878 113.107 39.6113C113.107 39.4903 113.166 39.4298 113.285 39.4298H117.055C117.165 39.4298 117.22 39.4845 117.22 39.5941L117.222 55.4978C117.222 55.542 117.2 55.5641 117.156 55.5641L113.366 55.5555C113.187 55.5555 113.099 55.4661 113.101 55.2874L113.11 54.0596C113.111 53.8579 113.048 53.8348 112.919 53.9905Z" fill="white"/>
</svg>
