<svg width="255" height="89" viewBox="0 0 255 89" fill="none" xmlns="http://www.w3.org/2000/svg">
<rect x="0.5" y="0.5" width="254" height="88" rx="44" stroke="white" stroke-opacity="0.2"/>
<path d="M70.0511 32.1063C69.6306 30.545 70.8861 28.6856 72.4466 30.2351C77.0522 34.8158 81.5177 39.2547 85.8429 43.552C86.8556 44.5575 86.8676 45.5541 85.8784 46.5419C84.1847 48.2321 82.4021 50.0089 80.5306 51.8723C80.4872 51.9176 80.4428 51.9176 80.3974 51.8723L73.6933 45.2019C73.5885 45.0976 73.5129 44.9661 73.4742 44.8212C72.2937 40.4412 71.1526 36.2029 70.0511 32.1063ZM80.5242 47.3904C81.1568 47.4289 81.7791 47.2107 82.2543 46.7839C82.7294 46.3571 83.0185 45.7564 83.0579 45.1142C83.0775 44.7962 83.0351 44.4775 82.9332 44.1764C82.8314 43.8754 82.6721 43.5976 82.4644 43.3593C82.2567 43.1209 82.0047 42.9265 81.7228 42.7872C81.4409 42.6478 81.1346 42.5663 80.8213 42.5472C80.1887 42.5086 79.5664 42.7268 79.0913 43.1536C78.6161 43.5805 78.327 44.1811 78.2876 44.8233C78.268 45.1415 78.3104 45.46 78.4123 45.7612C78.5141 46.0623 78.6734 46.3398 78.8811 46.5782C79.0888 46.8166 79.3408 47.0111 79.6227 47.1505C79.9046 47.2897 80.2109 47.3712 80.5242 47.3904Z" fill="white"/>
<path d="M155.978 48.2656L155.975 53.5901C155.975 53.6089 155.971 53.6276 155.964 53.645C155.957 53.6623 155.946 53.678 155.933 53.6913C155.919 53.7044 155.903 53.7148 155.885 53.7217C155.868 53.7288 155.849 53.7321 155.83 53.7317L154.986 53.7139C154.894 53.712 154.847 53.6649 154.847 53.5723L154.841 36.9202C154.841 36.8061 154.898 36.748 155.013 36.7461C158.055 36.6792 160.342 36.7047 161.874 36.8228C163.123 36.9192 164.181 37.4485 165.045 38.4107C166.653 40.2022 166.695 44.5497 165.022 46.4062C164.094 47.4353 162.803 47.9754 161.148 48.0265C159.465 48.0758 157.816 48.0816 156.203 48.0443C156.053 48.0422 155.978 48.116 155.978 48.2656ZM161.323 46.8547C164.601 46.7515 165.537 43.6318 164.956 40.9342C164.548 39.0275 163.293 38.0191 161.193 37.9089C159.77 37.8342 158.065 37.8155 156.079 37.8529C156.01 37.8529 155.975 37.8873 155.975 37.9562L155.978 46.7249C155.978 46.8371 156.033 46.8931 156.144 46.8931C158.09 46.9149 159.817 46.9021 161.323 46.8547Z" fill="white"/>
<path d="M174.447 49.1717L167.82 49.1746C167.785 49.1743 167.75 49.1852 167.721 49.2059C167.692 49.2266 167.671 49.256 167.66 49.2899L166.263 53.5989C166.252 53.6317 166.232 53.6604 166.204 53.6809C166.176 53.7017 166.143 53.7132 166.109 53.7141L165.238 53.7288C165.211 53.7296 165.185 53.7241 165.16 53.7125C165.136 53.701 165.115 53.6837 165.099 53.6621C165.083 53.6407 165.072 53.6156 165.068 53.5892C165.064 53.5628 165.067 53.5357 165.075 53.5103L170.541 36.814C170.553 36.7803 170.575 36.7513 170.604 36.731C170.634 36.7108 170.669 36.7006 170.704 36.7019L171.584 36.7343C171.618 36.7357 171.651 36.7476 171.677 36.7681C171.704 36.7888 171.725 36.8171 171.735 36.8494L177.207 53.5193C177.215 53.5441 177.217 53.5706 177.213 53.5965C177.208 53.6222 177.198 53.6467 177.182 53.6676C177.167 53.6887 177.146 53.7058 177.123 53.7174C177.099 53.7291 177.073 53.735 177.047 53.7346L176.165 53.7258C176.131 53.7251 176.097 53.7141 176.07 53.6941C176.042 53.674 176.022 53.6459 176.011 53.6137L174.607 49.2867C174.596 49.2531 174.575 49.2237 174.546 49.203C174.517 49.1822 174.483 49.1714 174.447 49.1717ZM168.113 47.944C168.109 47.9573 168.108 47.9714 168.11 47.9852C168.113 47.9991 168.118 48.012 168.127 48.0232C168.135 48.0345 168.146 48.0436 168.159 48.0498C168.171 48.0561 168.185 48.0592 168.199 48.059H174.074C174.088 48.0592 174.102 48.0561 174.115 48.0498C174.127 48.0436 174.138 48.0345 174.147 48.0232C174.155 48.012 174.161 47.9991 174.163 47.9852C174.165 47.9714 174.164 47.9573 174.16 47.944L171.223 38.9656C171.217 38.9467 171.206 38.93 171.191 38.9181C171.175 38.9062 171.156 38.8997 171.137 38.8997C171.117 38.8997 171.098 38.9062 171.082 38.9181C171.067 38.93 171.056 38.9467 171.051 38.9656L168.113 47.944Z" fill="white"/>
<path d="M181.042 43.9034L184.927 36.9261C185.004 36.7864 185.122 36.7165 185.282 36.7165L186.04 36.7106C186.245 36.7106 186.299 36.8002 186.2 36.9792C184.822 39.4624 183.341 42.1167 181.755 44.9421C181.587 45.2394 181.504 45.5581 181.504 45.8985C181.515 48.4466 181.516 51.0133 181.507 53.5989C181.507 53.6317 181.494 53.6633 181.47 53.6865C181.447 53.7098 181.415 53.7227 181.382 53.7227L180.518 53.7139C180.419 53.712 180.37 53.6618 180.37 53.5635V45.5916C180.37 45.4194 180.325 45.2496 180.239 45.0986L175.697 36.9851C175.59 36.7943 175.647 36.7008 175.869 36.7047L176.55 36.7165C176.757 36.7205 176.911 36.812 177.012 36.991L180.873 43.9034C180.881 43.9184 180.893 43.931 180.907 43.9398C180.922 43.9484 180.938 43.9531 180.956 43.9531C180.973 43.9531 180.99 43.9484 181.005 43.9398C181.02 43.931 181.033 43.9184 181.042 43.9034Z" fill="white"/>
<path d="M91.5677 42.6755C90.4188 44.9865 91.0614 48.3157 92.8647 49.9656C95.0115 51.9312 98.3635 52.0257 100.256 49.5436C100.321 49.4569 100.398 49.4451 100.487 49.5082L102.708 51.0575C102.723 51.0686 102.737 51.0828 102.747 51.099C102.757 51.1154 102.764 51.1335 102.767 51.1524C102.77 51.1714 102.769 51.1905 102.763 51.2087C102.758 51.227 102.749 51.2439 102.737 51.2583C101.563 52.7124 100.094 53.5939 98.3309 53.9029C93.1104 54.8178 88.5266 51.8191 87.9639 46.4062C87.3036 40.0605 92.6396 35.6362 98.7633 37.0824C100.118 37.4032 101.33 38.1666 102.4 39.3728C102.429 39.4062 102.425 39.4367 102.388 39.4643L100.176 41.0551C100.14 41.0807 100.109 41.0768 100.081 41.0433C99.2716 40.0969 98.3063 39.5833 97.1849 39.5026C94.5812 39.3197 92.7087 40.3772 91.5677 42.6755Z" fill="white"/>
<path d="M107.561 37.2242H104.849C104.785 37.2242 104.733 37.2758 104.733 37.3393V53.5427C104.733 53.6063 104.785 53.658 104.849 53.658H107.561C107.625 53.658 107.676 53.6063 107.676 53.5427V37.3393C107.676 37.2758 107.625 37.2242 107.561 37.2242Z" fill="white"/>
<path d="M114.217 39.9838V44.0923C114.217 44.122 114.229 44.1505 114.25 44.1716C114.271 44.1925 114.3 44.2044 114.33 44.2044L121.398 44.2103C121.428 44.2103 121.456 44.222 121.478 44.2431C121.499 44.2642 121.511 44.2927 121.511 44.3224L121.508 46.7102C121.508 46.7399 121.496 46.7684 121.475 46.7895C121.454 46.8105 121.425 46.8223 121.395 46.8223L114.33 46.8193C114.3 46.8193 114.271 46.8313 114.25 46.8522C114.229 46.8732 114.217 46.9017 114.217 46.9316L114.22 53.5517C114.22 53.5664 114.217 53.5809 114.212 53.5946C114.206 53.6082 114.198 53.6205 114.187 53.631C114.177 53.6414 114.164 53.6497 114.151 53.6552C114.137 53.6609 114.122 53.6638 114.108 53.6638H111.383C111.369 53.6638 111.354 53.6609 111.34 53.6552C111.327 53.6497 111.314 53.6414 111.304 53.631C111.293 53.6205 111.285 53.6082 111.279 53.5946C111.274 53.5809 111.271 53.5664 111.271 53.5517L111.274 37.3334C111.274 37.3037 111.286 37.2752 111.307 37.2541C111.328 37.2331 111.356 37.2213 111.386 37.2213L121.824 37.2272C121.854 37.2272 121.883 37.239 121.904 37.26C121.925 37.2811 121.937 37.3096 121.937 37.3393L121.94 39.7595C121.94 39.7743 121.937 39.7888 121.931 39.8024C121.926 39.8161 121.917 39.8284 121.907 39.8388C121.896 39.8493 121.884 39.8575 121.87 39.8631C121.857 39.8688 121.842 39.8717 121.827 39.8717H114.33C114.3 39.8717 114.271 39.8835 114.25 39.9045C114.229 39.9256 114.217 39.9541 114.217 39.9838Z" fill="white"/>
<path d="M127.61 46.8872L127.607 53.593C127.607 53.6383 127.586 53.6609 127.542 53.6609H124.738C124.685 53.6609 124.658 53.6343 124.658 53.5811V37.422C124.658 37.2941 124.721 37.2301 124.847 37.2301C126.93 37.2085 128.946 37.2154 130.894 37.2508C134.163 37.3098 136.979 38.8269 136.517 42.6136C136.263 44.6913 135.065 45.9457 132.923 46.3766C132.81 46.3982 132.783 46.4583 132.843 46.5566L137.024 53.469C137.035 53.4883 137.041 53.5103 137.042 53.5327C137.042 53.5552 137.036 53.5773 137.025 53.5968C137.014 53.6162 136.998 53.6324 136.978 53.6436C136.959 53.655 136.937 53.6609 136.914 53.6609L133.767 53.658C133.646 53.658 133.557 53.6058 133.5 53.5015L129.802 46.7722C129.784 46.7401 129.757 46.7133 129.726 46.6946C129.694 46.676 129.658 46.666 129.621 46.666L127.835 46.663C127.685 46.663 127.61 46.7378 127.61 46.8872ZM127.604 39.8333L127.61 44.1129C127.61 44.1357 127.619 44.1574 127.635 44.1735C127.651 44.1894 127.673 44.1985 127.696 44.1985L130.918 44.1925C131.255 44.192 131.589 44.1402 131.901 44.0398C132.212 43.9396 132.495 43.7928 132.733 43.6082C132.971 43.4233 133.16 43.2043 133.289 42.9632C133.417 42.7222 133.483 42.4639 133.482 42.2033V41.7193C133.481 41.1936 133.209 40.69 132.727 40.3192C132.245 39.9484 131.592 39.7407 130.912 39.7418L127.69 39.7477C127.667 39.7477 127.646 39.7567 127.629 39.7728C127.613 39.7889 127.604 39.8106 127.604 39.8333Z" fill="white"/>
<path d="M149.378 49.8889L142.396 49.8977C142.368 49.8977 142.34 49.906 142.317 49.9219C142.294 49.9376 142.276 49.9602 142.266 49.9863L140.835 53.5723C140.825 53.5985 140.807 53.621 140.784 53.6367C140.761 53.6526 140.733 53.6609 140.705 53.6609L137.732 53.6638C137.709 53.6638 137.686 53.6581 137.666 53.6471C137.645 53.636 137.628 53.6201 137.615 53.6008C137.603 53.5814 137.595 53.5593 137.593 53.5362C137.591 53.5132 137.595 53.4901 137.605 53.469L144.673 37.3069C144.684 37.2823 144.702 37.2614 144.724 37.2467C144.747 37.232 144.773 37.2242 144.8 37.2242L147.154 37.2213C147.181 37.2213 147.208 37.2291 147.23 37.2438C147.253 37.2584 147.271 37.2793 147.282 37.3039L154.294 53.469C154.303 53.4904 154.307 53.5137 154.305 53.537C154.303 53.5602 154.295 53.5826 154.282 53.602C154.269 53.6215 154.252 53.6374 154.231 53.6481C154.21 53.659 154.187 53.6643 154.164 53.6638L151.108 53.6609C151.08 53.6612 151.053 53.6533 151.029 53.6379C151.006 53.6227 150.988 53.601 150.977 53.5752L149.509 49.9745C149.498 49.9488 149.48 49.927 149.457 49.9118C149.433 49.8965 149.406 49.8885 149.378 49.8889ZM143.355 47.2562C143.349 47.2703 143.347 47.2857 143.349 47.3009C143.35 47.3163 143.355 47.3308 143.364 47.3436C143.372 47.3563 143.384 47.3669 143.397 47.3743C143.411 47.3817 143.426 47.3857 143.441 47.3861L148.303 47.4038C148.319 47.4038 148.334 47.4002 148.348 47.3931C148.362 47.3859 148.374 47.3753 148.383 47.3626C148.391 47.3496 148.397 47.3349 148.399 47.3194C148.4 47.304 148.398 47.2883 148.392 47.274L145.985 40.9431C145.978 40.925 145.966 40.9094 145.95 40.8984C145.934 40.8874 145.915 40.8815 145.896 40.8815C145.877 40.8815 145.858 40.8874 145.842 40.8984C145.826 40.9094 145.814 40.925 145.807 40.9431L143.355 47.2562Z" fill="white"/>
<path d="M72.6512 48.3955C72.7598 47.9999 72.8536 47.5976 72.9325 47.1883C72.9375 47.1613 72.9498 47.1363 72.968 47.1159C72.9862 47.0954 73.0096 47.0803 73.0358 47.072C73.062 47.0639 73.0899 47.0629 73.1166 47.0694C73.1433 47.0758 73.1677 47.0893 73.1872 47.1087L79.2013 53.0854C79.2162 53.1002 79.2245 53.1204 79.2245 53.1413C79.2245 53.1624 79.2162 53.1826 79.2013 53.1975C76.8778 55.4977 74.7517 57.6119 72.823 59.5402C72.3492 60.0154 71.7066 60.5525 70.9841 60.3194C69.998 60.0034 69.8174 58.8849 70.0543 57.9995C70.8202 55.1109 71.6859 51.9096 72.6512 48.3955Z" fill="white"/>
</svg>
