<svg width="255" height="89" viewBox="0 0 255 89" fill="none" xmlns="http://www.w3.org/2000/svg">
<rect x="0.5" y="0.5" width="254" height="88" rx="44" stroke="white" stroke-opacity="0.2"/>
<path d="M176.631 45.2126L169.347 35.4064C169.332 35.3858 169.323 35.3614 169.321 35.336C169.319 35.3106 169.324 35.285 169.335 35.2622C169.347 35.2394 169.364 35.2202 169.386 35.2066C169.407 35.1931 169.432 35.1858 169.458 35.1855L174.078 35.2195C174.099 35.2197 174.121 35.225 174.14 35.2348C174.159 35.2446 174.175 35.2588 174.188 35.2761L181.529 45.2126C181.546 45.2365 181.556 45.2652 181.556 45.2947C181.556 45.3243 181.546 45.353 181.529 45.3768L174.188 55.3134C174.175 55.3307 174.159 55.3449 174.14 55.3547C174.121 55.3645 174.099 55.3698 174.078 55.37L169.455 55.4068C169.429 55.4065 169.404 55.3992 169.383 55.3857C169.361 55.3722 169.344 55.3529 169.332 55.3301C169.321 55.3073 169.316 55.2817 169.318 55.2563C169.32 55.2309 169.329 55.2065 169.345 55.186L176.631 45.3768C176.649 45.353 176.658 45.3243 176.658 45.2947C176.658 45.2652 176.649 45.2365 176.631 45.2126Z" fill="white"/>
<path d="M78.8257 39.0497V55.2878C78.8257 55.3118 78.8162 55.3349 78.7992 55.3518C78.7822 55.3688 78.7591 55.3784 78.7351 55.3784H74.5963C74.5723 55.3784 74.5493 55.3688 74.5323 55.3518C74.5153 55.3349 74.5057 55.3118 74.5057 55.2878L74.5086 39.0497C74.5086 39.0256 74.499 39.0026 74.482 38.9856C74.465 38.9686 74.442 38.9591 74.418 38.9591H67.0944C67.0704 38.9591 67.0473 38.9495 67.0303 38.9325C67.0134 38.9155 67.0038 38.8925 67.0038 38.8685L67.001 35.2959C67.001 35.2718 67.0105 35.2488 67.0275 35.2318C67.0445 35.2148 67.0675 35.2053 67.0916 35.2053H86.2427C86.2667 35.2053 86.2898 35.2148 86.3068 35.2318C86.3238 35.2488 86.3333 35.2718 86.3333 35.2959L86.3305 38.8685C86.3305 38.8804 86.3281 38.8922 86.3236 38.9031C86.319 38.9141 86.3123 38.9241 86.3039 38.9325C86.2955 38.9409 86.2855 38.9476 86.2745 38.9522C86.2636 38.9567 86.2518 38.9591 86.2399 38.9591H78.9163C78.8923 38.9591 78.8692 38.9686 78.8522 38.9856C78.8353 39.0026 78.8257 39.0256 78.8257 39.0497Z" fill="white"/>
<path d="M120.329 42.9961L118.61 42.9933C118.503 42.9914 118.449 42.9367 118.449 42.8291L118.446 39.6953C118.446 39.5896 118.499 39.5368 118.605 39.5368H120.337C120.451 39.5368 120.507 39.4802 120.507 39.3669V35.3329C120.507 35.2498 120.549 35.2083 120.632 35.2083L124.504 35.2026C124.525 35.2026 124.544 35.2104 124.558 35.2242C124.573 35.238 124.581 35.2567 124.581 35.2762L124.578 39.4603C124.578 39.4704 124.58 39.4803 124.584 39.4896C124.588 39.4989 124.593 39.5073 124.6 39.5144C124.608 39.5215 124.616 39.5271 124.625 39.531C124.635 39.5348 124.644 39.5368 124.654 39.5368H130.52C130.605 39.5368 130.648 39.5792 130.648 39.6642L130.645 42.8631C130.645 42.8976 130.631 42.9308 130.606 42.9552C130.581 42.9796 130.547 42.9933 130.512 42.9933H124.728C124.622 42.9933 124.57 43.0471 124.57 43.1547C124.588 45.2533 124.587 47.4171 124.567 49.646C124.555 50.7529 125.116 51.5823 126.279 51.605C127.621 51.6314 129.024 51.6352 130.489 51.6163C130.595 51.6163 130.648 51.6682 130.648 51.772L130.642 55.2399C130.642 55.2732 130.629 55.3051 130.606 55.329C130.584 55.3528 130.553 55.3665 130.52 55.3672C128.818 55.3937 127.124 55.3918 125.439 55.3616C121.589 55.288 120.473 52.5986 120.502 49.3006C120.517 47.3869 120.517 45.342 120.502 43.166C120.5 43.0547 120.442 42.998 120.329 42.9961Z" fill="white"/>
<path d="M135.98 40.9407C135.98 41.1691 136.057 41.1993 136.212 41.0313C137.766 39.3497 140.127 39.0808 142.236 39.3073C146.111 39.7206 148.637 42.4779 148.713 46.4468C148.758 48.7663 148.763 51.6906 148.727 55.2198C148.727 55.3255 148.673 55.3784 148.566 55.3784H144.877C144.839 55.3784 144.802 55.3633 144.774 55.3363C144.747 55.3093 144.731 55.2725 144.73 55.234C144.69 53.2222 144.69 51.2434 144.73 49.2976C144.764 47.5858 144.701 46.4072 144.54 45.7618C144.174 44.2953 143.039 43.4423 141.135 43.2026C138.443 42.8601 135.965 44.0038 135.982 46.996C135.996 49.8194 135.998 52.5833 135.991 55.2878C135.991 55.3133 135.981 55.3378 135.964 55.3558C135.946 55.3739 135.922 55.384 135.898 55.384L132.098 55.3784C132.015 55.3784 131.974 55.3369 131.974 55.2538V35.3666C131.974 35.2591 132.029 35.2053 132.138 35.2053L135.844 35.2081C135.885 35.2081 135.925 35.2242 135.954 35.2529C135.983 35.2815 135.999 35.3204 135.999 35.361L135.98 40.9407Z" fill="white"/>
<path d="M188.969 35.3893L183.414 42.8374C183.404 42.8509 183.391 42.8619 183.376 42.8694C183.36 42.8769 183.344 42.8808 183.327 42.8808C183.31 42.8808 183.293 42.8769 183.278 42.8694C183.262 42.8619 183.249 42.8509 183.239 42.8374L180.932 39.7347C180.918 39.7158 180.91 39.693 180.91 39.6696C180.91 39.6462 180.918 39.6234 180.932 39.6045L184.156 35.2506C184.166 35.2363 184.18 35.2248 184.196 35.2169C184.212 35.209 184.229 35.2051 184.247 35.2053L188.878 35.2138C188.899 35.2135 188.919 35.219 188.936 35.2295C188.954 35.2401 188.968 35.2553 188.978 35.2735C188.987 35.2918 188.991 35.3122 188.99 35.3327C188.988 35.3531 188.981 35.3727 188.969 35.3893Z" fill="white"/>
<path d="M153.973 48.29C154.205 49.7149 154.901 50.6934 156.062 51.2257C158.16 52.1882 161.611 52.0693 162.992 49.864C163.058 49.7602 163.152 49.7083 163.275 49.7083L167.315 49.7055C167.327 49.7055 167.339 49.7084 167.35 49.7138C167.361 49.7192 167.37 49.7271 167.378 49.7369C167.386 49.7466 167.391 49.758 167.394 49.7702C167.396 49.7824 167.397 49.7951 167.394 49.8074C166.341 54.4133 162.231 55.8599 157.984 55.6504C152.603 55.3871 149.469 52.0381 149.91 46.5745C150.4 40.522 155.397 38.6677 160.724 39.3868C165.509 40.0322 167.739 43.3161 167.64 47.9729C167.64 48.001 167.628 48.0276 167.608 48.0472C167.588 48.0667 167.561 48.0777 167.533 48.0777H154.154C154.01 48.0777 153.95 48.1484 153.973 48.29ZM162.882 44.8193C161.042 42.5546 156.368 42.4923 154.567 44.9382C154.555 44.9545 154.547 44.9739 154.545 44.9944C154.543 45.0148 154.547 45.0355 154.557 45.054C154.566 45.0725 154.581 45.0882 154.598 45.0992C154.616 45.1103 154.637 45.1163 154.658 45.1165L162.879 45.1137C162.893 45.1137 162.906 45.1105 162.919 45.1043C162.931 45.0981 162.942 45.0892 162.951 45.0781C162.96 45.0669 162.966 45.0539 162.969 45.04C162.972 45.0261 162.972 45.0116 162.969 44.9976C162.954 44.9335 162.925 44.874 162.882 44.8193Z" fill="white"/>
<path d="M92.1027 42.0448C93.8381 39.5451 96.6464 39.412 99.5084 39.5507C99.6235 39.5564 99.6811 39.6159 99.6811 39.7291L99.6783 42.8006C99.6783 42.9403 99.6075 43.0082 99.4659 43.0045C96.5218 42.9195 93.4672 43.2479 92.2216 46.3251C92.014 46.8385 91.9102 47.65 91.9102 48.7597C91.9102 50.8867 91.914 53.0344 91.9216 55.2029C91.9216 55.3199 91.863 55.3784 91.746 55.3784L88.0432 55.3812C87.9356 55.3812 87.8818 55.3274 87.8818 55.2199V39.7263C87.8818 39.6017 87.9451 39.5394 88.0715 39.5394L91.7998 39.5366C91.8791 39.5366 91.9187 39.5762 91.9187 39.6555L91.9159 41.9853C91.914 42.2043 91.9763 42.2241 92.1027 42.0448Z" fill="white"/>
<path d="M113.188 53.8383C112.588 54.5612 111.879 55.0415 111.062 55.2793C106.929 56.4824 102.376 55.1094 101.026 50.764C100.717 49.7713 100.574 48.4502 100.599 46.8007C100.635 44.5397 100.638 42.1844 100.61 39.7347C100.61 39.6045 100.675 39.5394 100.805 39.5394L104.494 39.5366C104.617 39.5366 104.677 39.5979 104.675 39.7206C104.649 42.7251 104.653 45.5947 104.686 48.3294C104.72 51.1631 107.699 52.0775 110.113 51.6812C112.291 51.3207 113.379 50.0874 113.377 47.9812C113.372 45.1974 113.37 42.442 113.372 39.7149C113.372 39.596 113.43 39.5366 113.547 39.5366H117.25C117.358 39.5366 117.411 39.5903 117.411 39.6979L117.414 55.3189C117.414 55.3623 117.393 55.384 117.349 55.384L113.627 55.3755C113.451 55.3755 113.364 55.2878 113.366 55.1122L113.375 53.9063C113.376 53.7081 113.314 53.6855 113.188 53.8383Z" fill="white"/>
<path d="M184.153 55.3334L180.897 50.954C180.883 50.9362 180.876 50.9143 180.876 50.8917C180.876 50.8692 180.883 50.8473 180.897 50.8294L183.25 47.7154C183.259 47.7027 183.272 47.6925 183.286 47.6855C183.301 47.6785 183.317 47.675 183.333 47.6753C183.349 47.6756 183.364 47.6796 183.378 47.6871C183.392 47.6945 183.405 47.7052 183.414 47.7183L188.979 55.2259C188.991 55.241 188.998 55.2592 189 55.2783C189.002 55.2974 188.999 55.3166 188.99 55.3337C188.981 55.3509 188.968 55.3652 188.952 55.3752C188.935 55.3852 188.917 55.3903 188.897 55.39L184.235 55.3731C184.219 55.3733 184.203 55.3698 184.189 55.3629C184.175 55.3561 184.162 55.346 184.153 55.3334Z" fill="white"/>
</svg>
