<svg width="116" height="30" viewBox="0 0 116 30" fill="none" xmlns="http://www.w3.org/2000/svg">
<path d="M93.97 23.1556C93.019 23.1556 92.1026 23.0259 91.2207 22.7665C90.3562 22.4899 89.5954 22.0749 88.9383 21.5216C88.2985 20.9683 87.7798 20.2766 87.3821 19.4467C87.0017 18.6167 86.8115 17.6398 86.8115 16.5158C86.8115 15.3919 87.0017 14.415 87.3821 13.585C87.7798 12.7551 88.2985 12.0634 88.9383 11.5101C89.5954 10.9568 90.3562 10.5504 91.2207 10.2911C92.1026 10.0144 93.019 9.8761 93.97 9.8761C94.9383 9.8761 95.8547 10.0144 96.7193 10.2911C97.5838 10.5677 98.3446 10.9827 99.0017 11.536C99.6587 12.0721 100.177 12.7551 100.558 13.585C100.956 14.415 101.154 15.3919 101.154 16.5158C101.154 17.6398 100.956 18.6167 100.558 19.4467C100.177 20.2766 99.6587 20.9683 99.0017 21.5216C98.3446 22.0749 97.5838 22.4899 96.7193 22.7665C95.8547 23.0259 94.9383 23.1556 93.97 23.1556ZM93.97 12.0288C93.3821 12.0288 92.8029 12.1239 92.2323 12.3141C91.6789 12.5043 91.1861 12.7896 90.7539 13.17C90.3389 13.5504 90.0017 14.0259 89.7423 14.5965C89.483 15.1499 89.3533 15.7896 89.3533 16.5158C89.3533 17.2766 89.4743 17.9423 89.7164 18.513C89.9585 19.0663 90.287 19.5245 90.702 19.8876C91.117 20.2507 91.6011 20.5274 92.1544 20.7176C92.725 20.8905 93.3302 20.9769 93.97 20.9769C94.5925 20.9769 95.1804 20.8905 95.7337 20.7176C96.3043 20.5274 96.7971 20.2507 97.2121 19.8876C97.6443 19.5072 97.9815 19.0403 98.2236 18.487C98.4829 17.9164 98.6126 17.2594 98.6126 16.5158C98.6126 15.7896 98.4829 15.1499 98.2236 14.5965C97.9815 14.0259 97.6443 13.5591 97.2121 13.196C96.7798 12.8156 96.287 12.5303 95.7337 12.3401C95.1804 12.1326 94.5925 12.0288 93.97 12.0288Z" fill="#1D1D1D"/>
<path d="M80.2979 25.3861H80.8685C81.7503 25.3861 82.3901 25.1786 82.7878 24.7637C83.2027 24.366 83.4102 23.6657 83.4102 22.6628V10.0317H85.952V22.6628C85.952 23.4755 85.8656 24.1758 85.6926 24.7637C85.5197 25.3688 85.2344 25.8616 84.8367 26.242C84.439 26.6397 83.9117 26.9337 83.2546 27.1239C82.6148 27.3314 81.8195 27.4351 80.8685 27.4351H80.2979V25.3861ZM83.4102 4.84442H85.952V7.04902H83.4102V4.84442Z" fill="#1D1D1D"/>
<path d="M73.3634 23.1556C72.4124 23.1556 71.5047 23.0259 70.6401 22.7665C69.7756 22.4899 69.0148 22.0749 68.3577 21.5216C67.7179 20.9683 67.2078 20.2766 66.8274 19.4467C66.447 18.6167 66.2568 17.6398 66.2568 16.5158C66.2568 15.3919 66.447 14.415 66.8274 13.585C67.2078 12.7551 67.7179 12.0634 68.3577 11.5101C69.0148 10.9568 69.7756 10.5504 70.6401 10.2911C71.5047 10.0144 72.4124 9.8761 73.3634 9.8761C74.3144 9.8761 75.2049 10.0144 76.0349 10.2911C76.8822 10.5677 77.617 10.9827 78.2395 11.536C78.862 12.0721 79.3548 12.7551 79.7179 13.585C80.081 14.415 80.2625 15.3919 80.2625 16.5158C80.2625 16.706 80.2625 16.8357 80.2625 16.9049C80.2625 16.9568 80.2453 17.0692 80.2107 17.2421H68.9024C69.0926 18.5389 69.594 19.5072 70.4067 20.147C71.2194 20.7867 72.2222 21.098 73.4153 21.0807C74.4182 21.0634 75.2914 20.8732 76.0349 20.5101C76.7957 20.147 77.3577 19.4812 77.7208 18.513L80.0551 18.8242C79.813 19.6023 79.4672 20.268 79.0176 20.8213C78.5853 21.3746 78.0752 21.8242 77.4873 22.17C76.8994 22.4985 76.251 22.7492 75.5421 22.9222C74.8505 23.0778 74.1242 23.1556 73.3634 23.1556ZM73.4153 11.8732C72.8447 11.8732 72.2741 11.9856 71.7035 12.2104C71.1329 12.4179 70.6315 12.7464 70.1992 13.196C69.7669 13.6282 69.4211 14.1816 69.1617 14.8559C68.9197 15.5303 68.8332 16.3256 68.9024 17.2421C69.0061 16.8962 69.1185 16.6196 69.2395 16.4121C69.3779 16.2046 69.5335 16.049 69.7064 15.9452C69.8966 15.8415 70.1041 15.7723 70.3289 15.7377C70.5709 15.7032 70.8476 15.6859 71.1588 15.6859H77.8505C77.6602 14.3545 77.1675 13.3948 76.3721 12.8069C75.594 12.2017 74.6084 11.8905 73.4153 11.8732Z" fill="#1D1D1D"/>
<path d="M53.4004 10.0317H56.1497L59.8586 19.9395C59.9623 20.2334 60.0401 20.5533 60.092 20.8991C60.1439 21.2449 60.1785 21.5648 60.1958 21.8588H60.2476C60.2303 21.5648 60.2476 21.2449 60.2995 20.8991C60.3687 20.5533 60.4465 20.2334 60.5329 19.9395L64.164 10.0317H66.8614L62.0113 23H58.2505L53.4004 10.0317Z" fill="#1D1D1D"/>
<path d="M38.7988 23L45.6461 4.84442H49.355L56.2022 23H53.4789L51.793 18.6686H43.1821L41.5481 23H38.7988ZM43.9861 16.4121C45.0755 16.4121 46.0092 16.4121 46.7873 16.4121C47.5654 16.4121 48.2311 16.4467 48.7844 16.5158C49.3377 16.5677 49.8651 16.732 50.3665 17.0086C50.8852 17.2853 51.3348 17.7522 51.7152 18.4092L47.4876 7.12683L43.9861 16.4121Z" fill="#1D1D1D"/>
<path d="M109.381 5H110.748L112.192 8.52314H112.254L113.698 5H115.065V10.2437H113.99V6.8307H113.946L112.589 10.2181H111.857L110.5 6.8179H110.456V10.2437H109.381V5Z" fill="#1D1D1D"/>
<path d="M104.51 5.91407V5H108.816V5.91407H107.211V10.2437H106.115V5.91407H104.51Z" fill="#1D1D1D"/>
<path fill-rule="evenodd" clip-rule="evenodd" d="M18.6362 0H11.1602L7.45246 3.71366H0V11.1849H7.45246L11.1538 7.45656H11.153C12.0562 6.53339 12.4978 4.45721 12.3714 3.90835L12.5967 3.89496C12.5268 4.59411 13.153 7.27243 14.178 7.45015H18.6362V0Z" fill="black"/>
<path fill-rule="evenodd" clip-rule="evenodd" d="M29.8296 14.9866V7.54213L22.38 7.54211L18.6363 11.2729H11.1602L7.45247 14.9866H0V22.4579H7.45247L11.1602 18.7231H11.1604C12.0533 17.7922 12.4891 15.7365 12.3634 15.1908L12.5887 15.1774C12.5198 15.8662 13.1267 18.4762 14.1249 18.7231H18.6363L22.4685 14.9866C23.3597 14.0545 23.7947 12.002 23.6691 11.4567L23.8944 11.4433C23.8257 12.1299 24.4285 14.7255 25.421 14.9866L29.8296 14.9866Z" fill="black"/>
<path fill-rule="evenodd" clip-rule="evenodd" d="M29.8296 18.8151H22.3536L18.6458 22.5287H11.1934V30H18.6458L22.3401 26.2787H22.3381C23.2413 25.3556 23.6829 23.2794 23.5564 22.7305L23.7818 22.7171C23.7126 23.4082 24.3238 26.0333 25.3279 26.2652H29.8296V18.8151Z" fill="black"/>
</svg>
