<svg width="30" height="30" viewBox="0 0 30 30" fill="none" xmlns="http://www.w3.org/2000/svg">
<path fill-rule="evenodd" clip-rule="evenodd" d="M18.6362 0H11.1602L7.45246 3.71366H0V11.1849H7.45246L11.1538 7.45656H11.153C12.0562 6.53339 12.4978 4.45721 12.3714 3.90835L12.5967 3.89496C12.5268 4.59411 13.153 7.27243 14.178 7.45015H18.6362V0Z" fill="black"/>
<path fill-rule="evenodd" clip-rule="evenodd" d="M29.8296 14.9866V7.54213L22.38 7.54211L18.6363 11.2729H11.1602L7.45247 14.9866H0V22.4579H7.45247L11.1602 18.7231H11.1604C12.0533 17.7922 12.4891 15.7365 12.3634 15.1908L12.5887 15.1774C12.5198 15.8662 13.1267 18.4762 14.1249 18.7231H18.6363L22.4685 14.9866C23.3597 14.0545 23.7947 12.002 23.6691 11.4567L23.8944 11.4433C23.8257 12.1299 24.4285 14.7255 25.421 14.9866L29.8296 14.9866Z" fill="black"/>
<path fill-rule="evenodd" clip-rule="evenodd" d="M29.8296 18.8151H22.3536L18.6458 22.5287H11.1934V30H18.6458L22.3401 26.2787H22.3381C23.2413 25.3556 23.6829 23.2794 23.5564 22.7305L23.7818 22.7171C23.7126 23.4082 24.3238 26.0333 25.3279 26.2652H29.8296V18.8151Z" fill="black"/>
</svg>
